<?xml version="1.0" encoding="utf-8" standalone="no"?>
<!DOCTYPE svg PUBLIC "-//W3C//DTD SVG 1.1//EN"
  "http://www.w3.org/Graphics/SVG/1.1/DTD/svg11.dtd">
<!-- Created with matplotlib (https://matplotlib.org/) -->
<svg height="288pt" version="1.1" viewBox="0 0 432 288" width="432pt" xmlns="http://www.w3.org/2000/svg" xmlns:xlink="http://www.w3.org/1999/xlink">
 <metadata>
  <rdf:RDF xmlns:cc="http://creativecommons.org/ns#" xmlns:dc="http://purl.org/dc/elements/1.1/" xmlns:rdf="http://www.w3.org/1999/02/22-rdf-syntax-ns#">
   <cc:Work>
    <dc:type rdf:resource="http://purl.org/dc/dcmitype/StillImage"/>
    <dc:date>2021-09-08T21:32:06.331303</dc:date>
    <dc:format>image/svg+xml</dc:format>
    <dc:creator>
     <cc:Agent>
      <dc:title>Matplotlib v3.3.4, https://matplotlib.org/</dc:title>
     </cc:Agent>
    </dc:creator>
   </cc:Work>
  </rdf:RDF>
 </metadata>
 <defs>
  <style type="text/css">*{stroke-linecap:butt;stroke-linejoin:round;}</style>
 </defs>
 <g id="figure_1">
  <g id="patch_1">
   <path d="M 0 288 
L 432 288 
L 432 0 
L 0 0 
z
" style="fill:none;"/>
  </g>
  <g id="axes_1">
   <g id="patch_2">
    <path d="M 54 252 
L 388.8 252 
L 388.8 34.56 
L 54 34.56 
z
" style="fill:#ffffff;"/>
   </g>
   <g id="patch_3">
    <path clip-path="url(#pa2c7fa0f9a)" d="M 69.218182 252 
L 74.62485 252 
L 74.62485 250.382143 
L 69.218182 250.382143 
z
" style="fill:#0504aa;opacity:0.7;"/>
   </g>
   <g id="patch_4">
    <path clip-path="url(#pa2c7fa0f9a)" d="M 75.578968 252 
L 80.985637 252 
L 80.985637 249.16875 
L 75.578968 249.16875 
z
" style="fill:#0504aa;opacity:0.7;"/>
   </g>
   <g id="patch_5">
    <path clip-path="url(#pa2c7fa0f9a)" d="M 81.939755 252 
L 87.346423 252 
L 87.346423 249.573214 
L 81.939755 249.573214 
z
" style="fill:#0504aa;opacity:0.7;"/>
   </g>
   <g id="patch_6">
    <path clip-path="url(#pa2c7fa0f9a)" d="M 88.300541 252 
L 93.70721 252 
L 93.70721 247.550893 
L 88.300541 247.550893 
z
" style="fill:#0504aa;opacity:0.7;"/>
   </g>
   <g id="patch_7">
    <path clip-path="url(#pa2c7fa0f9a)" d="M 94.661328 252 
L 100.067997 252 
L 100.067997 247.550893 
L 94.661328 247.550893 
z
" style="fill:#0504aa;opacity:0.7;"/>
   </g>
   <g id="patch_8">
    <path clip-path="url(#pa2c7fa0f9a)" d="M 101.022115 252 
L 106.428783 252 
L 106.428783 243.101786 
L 101.022115 243.101786 
z
" style="fill:#0504aa;opacity:0.7;"/>
   </g>
   <g id="patch_9">
    <path clip-path="url(#pa2c7fa0f9a)" d="M 107.382901 252 
L 112.78957 252 
L 112.78957 243.50625 
L 107.382901 243.50625 
z
" style="fill:#0504aa;opacity:0.7;"/>
   </g>
   <g id="patch_10">
    <path clip-path="url(#pa2c7fa0f9a)" d="M 113.743688 252 
L 119.150356 252 
L 119.150356 230.563393 
L 113.743688 230.563393 
z
" style="fill:#0504aa;opacity:0.7;"/>
   </g>
   <g id="patch_11">
    <path clip-path="url(#pa2c7fa0f9a)" d="M 120.104474 252 
L 125.511143 252 
L 125.511143 229.35 
L 120.104474 229.35 
z
" style="fill:#0504aa;opacity:0.7;"/>
   </g>
   <g id="patch_12">
    <path clip-path="url(#pa2c7fa0f9a)" d="M 126.465261 252 
L 131.871929 252 
L 131.871929 218.025 
L 126.465261 218.025 
z
" style="fill:#0504aa;opacity:0.7;"/>
   </g>
   <g id="patch_13">
    <path clip-path="url(#pa2c7fa0f9a)" d="M 132.826047 252 
L 138.232716 252 
L 138.232716 219.642857 
L 132.826047 219.642857 
z
" style="fill:#0504aa;opacity:0.7;"/>
   </g>
   <g id="patch_14">
    <path clip-path="url(#pa2c7fa0f9a)" d="M 139.186834 252 
L 144.593502 252 
L 144.593502 196.992857 
L 139.186834 196.992857 
z
" style="fill:#0504aa;opacity:0.7;"/>
   </g>
   <g id="patch_15">
    <path clip-path="url(#pa2c7fa0f9a)" d="M 145.54762 252 
L 150.954289 252 
L 150.954289 190.521429 
L 145.54762 190.521429 
z
" style="fill:#0504aa;opacity:0.7;"/>
   </g>
   <g id="patch_16">
    <path clip-path="url(#pa2c7fa0f9a)" d="M 151.908407 252 
L 157.315076 252 
L 157.315076 195.779464 
L 151.908407 195.779464 
z
" style="fill:#0504aa;opacity:0.7;"/>
   </g>
   <g id="patch_17">
    <path clip-path="url(#pa2c7fa0f9a)" d="M 158.269194 252 
L 163.675862 252 
L 163.675862 184.858929 
L 158.269194 184.858929 
z
" style="fill:#0504aa;opacity:0.7;"/>
   </g>
   <g id="patch_18">
    <path clip-path="url(#pa2c7fa0f9a)" d="M 164.62998 252 
L 170.036649 252 
L 170.036649 171.916071 
L 164.62998 171.916071 
z
" style="fill:#0504aa;opacity:0.7;"/>
   </g>
   <g id="patch_19">
    <path clip-path="url(#pa2c7fa0f9a)" d="M 170.990767 252 
L 176.397435 252 
L 176.397435 158.56875 
L 170.990767 158.56875 
z
" style="fill:#0504aa;opacity:0.7;"/>
   </g>
   <g id="patch_20">
    <path clip-path="url(#pa2c7fa0f9a)" d="M 177.351553 252 
L 182.758222 252 
L 182.758222 149.266071 
L 177.351553 149.266071 
z
" style="fill:#0504aa;opacity:0.7;"/>
   </g>
   <g id="patch_21">
    <path clip-path="url(#pa2c7fa0f9a)" d="M 183.71234 252 
L 189.119008 252 
L 189.119008 127.020536 
L 183.71234 127.020536 
z
" style="fill:#0504aa;opacity:0.7;"/>
   </g>
   <g id="patch_22">
    <path clip-path="url(#pa2c7fa0f9a)" d="M 190.073126 252 
L 195.479795 252 
L 195.479795 120.953571 
L 190.073126 120.953571 
z
" style="fill:#0504aa;opacity:0.7;"/>
   </g>
   <g id="patch_23">
    <path clip-path="url(#pa2c7fa0f9a)" d="M 196.433913 252 
L 201.840581 252 
L 201.840581 105.179464 
L 196.433913 105.179464 
z
" style="fill:#0504aa;opacity:0.7;"/>
   </g>
   <g id="patch_24">
    <path clip-path="url(#pa2c7fa0f9a)" d="M 202.794699 252 
L 208.201368 252 
L 208.201368 96.28125 
L 202.794699 96.28125 
z
" style="fill:#0504aa;opacity:0.7;"/>
   </g>
   <g id="patch_25">
    <path clip-path="url(#pa2c7fa0f9a)" d="M 209.155486 252 
L 214.562154 252 
L 214.562154 95.472321 
L 209.155486 95.472321 
z
" style="fill:#0504aa;opacity:0.7;"/>
   </g>
   <g id="patch_26">
    <path clip-path="url(#pa2c7fa0f9a)" d="M 215.516272 252 
L 220.922941 252 
L 220.922941 64.328571 
L 215.516272 64.328571 
z
" style="fill:#0504aa;opacity:0.7;"/>
   </g>
   <g id="patch_27">
    <path clip-path="url(#pa2c7fa0f9a)" d="M 221.877059 252 
L 227.283728 252 
L 227.283728 53.8125 
L 221.877059 53.8125 
z
" style="fill:#0504aa;opacity:0.7;"/>
   </g>
   <g id="patch_28">
    <path clip-path="url(#pa2c7fa0f9a)" d="M 228.237846 252 
L 233.644514 252 
L 233.644514 53.408036 
L 228.237846 53.408036 
z
" style="fill:#0504aa;opacity:0.7;"/>
   </g>
   <g id="patch_29">
    <path clip-path="url(#pa2c7fa0f9a)" d="M 234.598632 252 
L 240.005301 252 
L 240.005301 60.688393 
L 234.598632 60.688393 
z
" style="fill:#0504aa;opacity:0.7;"/>
   </g>
   <g id="patch_30">
    <path clip-path="url(#pa2c7fa0f9a)" d="M 240.959419 252 
L 246.366087 252 
L 246.366087 44.914286 
L 240.959419 44.914286 
z
" style="fill:#0504aa;opacity:0.7;"/>
   </g>
   <g id="patch_31">
    <path clip-path="url(#pa2c7fa0f9a)" d="M 247.320205 252 
L 252.726874 252 
L 252.726874 46.936607 
L 247.320205 46.936607 
z
" style="fill:#0504aa;opacity:0.7;"/>
   </g>
   <g id="patch_32">
    <path clip-path="url(#pa2c7fa0f9a)" d="M 253.680992 252 
L 259.08766 252 
L 259.08766 72.013393 
L 253.680992 72.013393 
z
" style="fill:#0504aa;opacity:0.7;"/>
   </g>
   <g id="patch_33">
    <path clip-path="url(#pa2c7fa0f9a)" d="M 260.041778 252 
L 265.448447 252 
L 265.448447 74.440179 
L 260.041778 74.440179 
z
" style="fill:#0504aa;opacity:0.7;"/>
   </g>
   <g id="patch_34">
    <path clip-path="url(#pa2c7fa0f9a)" d="M 266.402565 252 
L 271.809233 252 
L 271.809233 71.204464 
L 266.402565 71.204464 
z
" style="fill:#0504aa;opacity:0.7;"/>
   </g>
   <g id="patch_35">
    <path clip-path="url(#pa2c7fa0f9a)" d="M 272.763351 252 
L 278.17002 252 
L 278.17002 89.405357 
L 272.763351 89.405357 
z
" style="fill:#0504aa;opacity:0.7;"/>
   </g>
   <g id="patch_36">
    <path clip-path="url(#pa2c7fa0f9a)" d="M 279.124138 252 
L 284.530806 252 
L 284.530806 104.775 
L 279.124138 104.775 
z
" style="fill:#0504aa;opacity:0.7;"/>
   </g>
   <g id="patch_37">
    <path clip-path="url(#pa2c7fa0f9a)" d="M 285.484924 252 
L 290.891593 252 
L 290.891593 110.4375 
L 285.484924 110.4375 
z
" style="fill:#0504aa;opacity:0.7;"/>
   </g>
   <g id="patch_38">
    <path clip-path="url(#pa2c7fa0f9a)" d="M 291.845711 252 
L 297.25238 252 
L 297.25238 139.963393 
L 291.845711 139.963393 
z
" style="fill:#0504aa;opacity:0.7;"/>
   </g>
   <g id="patch_39">
    <path clip-path="url(#pa2c7fa0f9a)" d="M 298.206498 252 
L 303.613166 252 
L 303.613166 151.692857 
L 298.206498 151.692857 
z
" style="fill:#0504aa;opacity:0.7;"/>
   </g>
   <g id="patch_40">
    <path clip-path="url(#pa2c7fa0f9a)" d="M 304.567284 252 
L 309.973953 252 
L 309.973953 174.342857 
L 304.567284 174.342857 
z
" style="fill:#0504aa;opacity:0.7;"/>
   </g>
   <g id="patch_41">
    <path clip-path="url(#pa2c7fa0f9a)" d="M 310.928071 252 
L 316.334739 252 
L 316.334739 192.54375 
L 310.928071 192.54375 
z
" style="fill:#0504aa;opacity:0.7;"/>
   </g>
   <g id="patch_42">
    <path clip-path="url(#pa2c7fa0f9a)" d="M 317.288857 252 
L 322.695526 252 
L 322.695526 203.464286 
L 317.288857 203.464286 
z
" style="fill:#0504aa;opacity:0.7;"/>
   </g>
   <g id="patch_43">
    <path clip-path="url(#pa2c7fa0f9a)" d="M 323.649644 252 
L 329.056312 252 
L 329.056312 216.407143 
L 323.649644 216.407143 
z
" style="fill:#0504aa;opacity:0.7;"/>
   </g>
   <g id="patch_44">
    <path clip-path="url(#pa2c7fa0f9a)" d="M 330.01043 252 
L 335.417099 252 
L 335.417099 228.945536 
L 330.01043 228.945536 
z
" style="fill:#0504aa;opacity:0.7;"/>
   </g>
   <g id="patch_45">
    <path clip-path="url(#pa2c7fa0f9a)" d="M 336.371217 252 
L 341.777885 252 
L 341.777885 237.84375 
L 336.371217 237.84375 
z
" style="fill:#0504aa;opacity:0.7;"/>
   </g>
   <g id="patch_46">
    <path clip-path="url(#pa2c7fa0f9a)" d="M 342.732003 252 
L 348.138672 252 
L 348.138672 243.101786 
L 342.732003 243.101786 
z
" style="fill:#0504aa;opacity:0.7;"/>
   </g>
   <g id="patch_47">
    <path clip-path="url(#pa2c7fa0f9a)" d="M 349.09279 252 
L 354.499459 252 
L 354.499459 245.528571 
L 349.09279 245.528571 
z
" style="fill:#0504aa;opacity:0.7;"/>
   </g>
   <g id="patch_48">
    <path clip-path="url(#pa2c7fa0f9a)" d="M 355.453577 252 
L 360.860245 252 
L 360.860245 248.359821 
L 355.453577 248.359821 
z
" style="fill:#0504aa;opacity:0.7;"/>
   </g>
   <g id="patch_49">
    <path clip-path="url(#pa2c7fa0f9a)" d="M 361.814363 252 
L 367.221032 252 
L 367.221032 250.786607 
L 361.814363 250.786607 
z
" style="fill:#0504aa;opacity:0.7;"/>
   </g>
   <g id="patch_50">
    <path clip-path="url(#pa2c7fa0f9a)" d="M 368.17515 252 
L 373.581818 252 
L 373.581818 250.786607 
L 368.17515 250.786607 
z
" style="fill:#0504aa;opacity:0.7;"/>
   </g>
   <g id="matplotlib.axis_1">
    <g id="xtick_1">
     <g id="line2d_1">
      <defs>
       <path d="M 0 0 
L 0 3.5 
" id="md89034d8e5" style="stroke:#000000;stroke-width:0.8;"/>
      </defs>
      <g>
       <use style="stroke:#000000;stroke-width:0.8;" x="64.418809" xlink:href="#md89034d8e5" y="252"/>
      </g>
     </g>
     <g id="text_1">
      <!-- $\mathdefault{−3}$ -->
      <g transform="translate(58.053769 265.918498)scale(0.1 -0.1)">
       <defs>
        <path d="M 65.90625 23 
C 67.59375 23 69.40625 23 69.40625 25 
C 69.40625 27 67.59375 27 65.90625 27 
L 11.796875 27 
C 10.09375 27 8.296875 27 8.296875 25 
C 8.296875 23 10.09375 23 11.796875 23 
z
" id="CMSY10-0"/>
        <path d="M 22.09375 34 
C 31 34 34.90625 26.140625 34.90625 17.09375 
C 34.90625 5.03125 28.5 0.390625 22.703125 0.390625 
C 17.40625 0.390625 8.796875 3.015625 6.09375 10.796875 
C 6.59375 10.59375 7.09375 10.59375 7.59375 10.59375 
C 10 10.59375 11.796875 12.1875 11.796875 14.796875 
C 11.796875 17.6875 9.59375 19 7.59375 19 
C 5.90625 19 3.296875 18.1875 3.296875 14.484375 
C 3.296875 5.234375 12.296875 -2 22.90625 -2 
C 34 -2 42.5 6.75 42.5 16.984375 
C 42.5 26.84375 34.5 34 25 35.09375 
C 32.59375 36.671875 39.90625 43.375 39.90625 52.390625 
C 39.90625 60.25 32 66 23 66 
C 13.90625 66 5.90625 60.34375 5.90625 52.296875 
C 5.90625 48.796875 8.5 48.1875 9.796875 48.1875 
C 11.90625 48.1875 13.703125 49.484375 13.703125 52.09375 
C 13.703125 54.6875 11.90625 56 9.796875 56 
C 9.40625 56 8.90625 56 8.5 55.796875 
C 11.40625 62.484375 19.296875 63.6875 22.796875 63.6875 
C 26.296875 63.6875 32.90625 61.96875 32.90625 52.296875 
C 32.90625 49.484375 32.5 44.546875 29.09375 40.21875 
C 26.09375 36.390625 22.703125 36.1875 19.40625 35.890625 
C 18.90625 35.890625 16.59375 35.6875 16.203125 35.6875 
C 15.5 35.59375 15.09375 35.5 15.09375 34.796875 
C 15.09375 34.09375 15.203125 34 17.203125 34 
z
" id="CMR17-51"/>
       </defs>
       <use transform="scale(0.996264)" xlink:href="#CMSY10-0"/>
       <use transform="translate(77.487468 0)scale(0.996264)" xlink:href="#CMR17-51"/>
      </g>
     </g>
    </g>
    <g id="xtick_2">
     <g id="line2d_2">
      <g>
       <use style="stroke:#000000;stroke-width:0.8;" x="114.173083" xlink:href="#md89034d8e5" y="252"/>
      </g>
     </g>
     <g id="text_2">
      <!-- $\mathdefault{−2}$ -->
      <g transform="translate(107.808043 265.918498)scale(0.1 -0.1)">
       <defs>
        <path d="M 41.703125 15.46875 
L 39.90625 15.46875 
C 38.90625 8.390625 38.09375 7.1875 37.703125 6.59375 
C 37.203125 5.796875 30 5.796875 28.59375 5.796875 
L 9.40625 5.796875 
C 13 9.6875 20 16.765625 28.5 24.9375 
C 34.59375 30.71875 41.703125 37.5 41.703125 47.390625 
C 41.703125 59.1875 32.296875 66 21.796875 66 
C 10.796875 66 4.09375 56.296875 4.09375 47.296875 
C 4.09375 43.390625 7 42.890625 8.203125 42.890625 
C 9.203125 42.890625 12.203125 43.484375 12.203125 46.984375 
C 12.203125 50.09375 9.59375 51 8.203125 51 
C 7.59375 51 7 50.890625 6.59375 50.6875 
C 8.5 59.1875 14.296875 63.390625 20.40625 63.390625 
C 29.09375 63.390625 34.796875 56.5 34.796875 47.390625 
C 34.796875 38.703125 29.703125 31.21875 24 24.734375 
L 4.09375 2.296875 
L 4.09375 0 
L 39.296875 0 
z
" id="CMR17-50"/>
       </defs>
       <use transform="scale(0.996264)" xlink:href="#CMSY10-0"/>
       <use transform="translate(77.487468 0)scale(0.996264)" xlink:href="#CMR17-50"/>
      </g>
     </g>
    </g>
    <g id="xtick_3">
     <g id="line2d_3">
      <g>
       <use style="stroke:#000000;stroke-width:0.8;" x="163.927357" xlink:href="#md89034d8e5" y="252"/>
      </g>
     </g>
     <g id="text_3">
      <!-- $\mathdefault{−1}$ -->
      <g transform="translate(157.562317 265.918498)scale(0.1 -0.1)">
       <defs>
        <path d="M 26.59375 63.796875 
C 26.59375 65.890625 26.5 66 25.09375 66 
C 21.203125 61.359375 15.296875 59.890625 9.703125 59.6875 
C 9.40625 59.6875 8.90625 59.6875 8.796875 59.5 
C 8.703125 59.296875 8.703125 59.09375 8.703125 57 
C 11.796875 57 17 57.59375 21 59.984375 
L 21 7.296875 
C 21 3.796875 20.796875 2.59375 12.203125 2.59375 
L 9.203125 2.59375 
L 9.203125 0 
C 14 0.09375 19 0.1875 23.796875 0.1875 
C 28.59375 0.1875 33.59375 0.09375 38.40625 0 
L 38.40625 2.59375 
L 35.40625 2.59375 
C 26.796875 2.59375 26.59375 3.6875 26.59375 7.296875 
z
" id="CMR17-49"/>
       </defs>
       <use transform="scale(0.996264)" xlink:href="#CMSY10-0"/>
       <use transform="translate(77.487468 0)scale(0.996264)" xlink:href="#CMR17-49"/>
      </g>
     </g>
    </g>
    <g id="xtick_4">
     <g id="line2d_4">
      <g>
       <use style="stroke:#000000;stroke-width:0.8;" x="213.681631" xlink:href="#md89034d8e5" y="252"/>
      </g>
     </g>
     <g id="text_4">
      <!-- $\mathdefault{0}$ -->
      <g transform="translate(211.190963 265.918498)scale(0.1 -0.1)">
       <defs>
        <path d="M 42 31.84375 
C 42 37.96875 41.90625 48.421875 37.703125 56.453125 
C 34 63.484375 28.09375 66 22.90625 66 
C 18.09375 66 12 63.78125 8.203125 56.5625 
C 4.203125 49.015625 3.796875 39.671875 3.796875 31.84375 
C 3.796875 26.109375 3.90625 17.375 7 9.734375 
C 11.296875 -0.609375 19 -2 22.90625 -2 
C 27.5 -2 34.5 -0.109375 38.59375 9.4375 
C 41.59375 16.375 42 24.5 42 31.84375 
z
M 22.90625 -0.40625 
C 16.5 -0.40625 12.703125 5.125 11.296875 12.75 
C 10.203125 18.6875 10.203125 27.328125 10.203125 32.953125 
C 10.203125 40.6875 10.203125 47.109375 11.5 53.234375 
C 13.40625 61.78125 19 64.390625 22.90625 64.390625 
C 27 64.390625 32.296875 61.671875 34.203125 53.4375 
C 35.5 47.71875 35.59375 40.984375 35.59375 32.953125 
C 35.59375 26.421875 35.59375 18.375 34.40625 12.453125 
C 32.296875 1.5 26.40625 -0.40625 22.90625 -0.40625 
z
" id="CMR17-48"/>
       </defs>
       <use transform="scale(0.996264)" xlink:href="#CMR17-48"/>
      </g>
     </g>
    </g>
    <g id="xtick_5">
     <g id="line2d_5">
      <g>
       <use style="stroke:#000000;stroke-width:0.8;" x="263.435905" xlink:href="#md89034d8e5" y="252"/>
      </g>
     </g>
     <g id="text_5">
      <!-- $\mathdefault{1}$ -->
      <g transform="translate(260.945237 265.918498)scale(0.1 -0.1)">
       <use transform="scale(0.996264)" xlink:href="#CMR17-49"/>
      </g>
     </g>
    </g>
    <g id="xtick_6">
     <g id="line2d_6">
      <g>
       <use style="stroke:#000000;stroke-width:0.8;" x="313.190179" xlink:href="#md89034d8e5" y="252"/>
      </g>
     </g>
     <g id="text_6">
      <!-- $\mathdefault{2}$ -->
      <g transform="translate(310.699511 265.918498)scale(0.1 -0.1)">
       <use transform="scale(0.996264)" xlink:href="#CMR17-50"/>
      </g>
     </g>
    </g>
    <g id="xtick_7">
     <g id="line2d_7">
      <g>
       <use style="stroke:#000000;stroke-width:0.8;" x="362.944453" xlink:href="#md89034d8e5" y="252"/>
      </g>
     </g>
     <g id="text_7">
      <!-- $\mathdefault{3}$ -->
      <g transform="translate(360.453785 265.918498)scale(0.1 -0.1)">
       <use transform="scale(0.996264)" xlink:href="#CMR17-51"/>
      </g>
     </g>
    </g>
    <g id="text_8">
     <!-- GPAs -->
     <g transform="translate(208.815235 278.774175)scale(0.1 -0.1)">
      <defs>
       <path d="M 62.09375 19.65625 
C 62.09375 23.484375 62.40625 24 68.59375 24 
L 68.59375 26.59375 
C 66.203125 26.390625 60.796875 26.390625 58.09375 26.390625 
C 55.296875 26.390625 47.5 26.5 43.703125 26.59375 
L 43.703125 24 
L 46.703125 24 
C 55.296875 24 55.5 22.875 55.5 19.25 
L 55.5 12.59375 
C 55.5 1.5 42.5 0.59375 39.40625 0.59375 
C 29.09375 0.59375 12.203125 7.75 12.203125 34.046875 
C 12.203125 60.34375 28.796875 67.390625 38.5 67.390625 
C 49.796875 67.390625 58 57.515625 59.90625 43.515625 
C 60.09375 42.3125 60.09375 42.109375 61 42.109375 
C 62.09375 42.109375 62.09375 42.3125 62.09375 44.125 
L 62.09375 67.984375 
C 62.09375 69.796875 62 69.890625 61.40625 69.890625 
C 61 69.890625 60.90625 69.796875 60.203125 68.59375 
L 55.796875 60.140625 
C 50.90625 66.390625 44.90625 70 37.203125 70 
C 20.09375 70 4.59375 54.796875 4.59375 34.046875 
C 4.59375 13.40625 19.796875 -2 37.40625 -2 
C 45.5 -2 53.40625 0.890625 56.5 6.640625 
C 58.203125 2.515625 61 -0.3125 61.5 -0.3125 
C 62 -0.3125 62.09375 -0.203125 62.09375 1.59375 
z
" id="CMR17-71"/>
       <path d="M 19.796875 32 
L 35.796875 32 
C 48.703125 32 58.09375 40.359375 58.09375 49.796875 
C 58.09375 59.234375 48.90625 68 35.796875 68 
L 5.203125 68 
L 5.203125 65.390625 
C 12.09375 65.390625 13.203125 65.390625 13.203125 60.921875 
L 13.203125 7.078125 
C 13.203125 2.59375 12.09375 2.59375 5.203125 2.59375 
L 5.203125 0 
C 8.09375 0.1875 13.40625 0.1875 16.5 0.1875 
C 19.59375 0.1875 24.90625 0.1875 27.796875 0 
L 27.796875 2.59375 
C 20.90625 2.59375 19.796875 2.59375 19.796875 7.078125 
z
M 19.59375 34.09375 
L 19.59375 61.515625 
C 19.59375 64.890625 19.796875 65.390625 23.796875 65.390625 
L 33.90625 65.390625 
C 46.796875 65.390625 50.5 58.046875 50.5 49.796875 
C 50.5 40.75 46.09375 34.09375 33.90625 34.09375 
z
" id="CMR17-80"/>
       <path d="M 36.296875 69.390625 
C 35.796875 70.6875 35.59375 71 34.59375 71 
C 33.59375 71 33.40625 70.6875 32.90625 69.390625 
L 11.703125 9.0625 
C 9.796875 3.6875 5.796875 2.59375 2.296875 2.59375 
L 2.296875 0 
C 4.09375 0.1875 8.09375 0.1875 10 0.1875 
C 12.5 0.1875 16.5 0.1875 18.90625 0 
L 18.90625 2.59375 
C 14.203125 2.796875 13.5 5.96875 13.5 7.171875 
C 13.5 8.0625 13.703125 8.5625 13.90625 9.15625 
L 19.203125 24 
L 45.40625 24 
L 51.40625 7.078125 
C 51.90625 5.875 51.90625 5.671875 51.90625 5.28125 
C 51.90625 2.59375 47.59375 2.59375 45.703125 2.59375 
L 45.703125 0 
C 48.59375 0.1875 53.796875 0.1875 56.90625 0.1875 
C 59.5 0.1875 64.5 0.1875 66.90625 0 
L 66.90625 2.59375 
C 61.59375 2.59375 59.796875 2.59375 58.5 6.28125 
z
M 32.296875 61.3125 
L 44.5 26.59375 
L 20.09375 26.59375 
z
" id="CMR17-65"/>
       <path d="M 30.90625 42 
C 30.90625 43.796875 30.796875 43.890625 30.203125 43.890625 
C 29.796875 43.890625 29.703125 43.796875 28.5 42.296875 
C 28.203125 41.890625 27.296875 40.890625 27 40.5 
C 23.796875 43.890625 19.296875 44 17.59375 44 
C 6.5 44 2.5 38.1875 2.5 32.390625 
C 2.5 23.390625 12.703125 21.296875 15.59375 20.6875 
C 21.90625 19.390625 24.09375 19 26.203125 17.1875 
C 27.5 16 29.703125 13.796875 29.703125 10.1875 
C 29.703125 6 27.296875 0.59375 18.09375 0.59375 
C 9.40625 0.59375 6.296875 7.1875 4.5 16 
C 4.203125 17.390625 4.203125 17.5 3.40625 17.5 
C 2.59375 17.5 2.5 17.390625 2.5 15.390625 
L 2.5 1 
C 2.5 -0.8125 2.59375 -0.90625 3.203125 -0.90625 
C 3.703125 -0.90625 3.796875 -0.8125 4.296875 0 
C 4.90625 0.890625 6.40625 3.296875 7 4.296875 
C 9 1.59375 12.5 -1 18.09375 -1 
C 28 -1 33.296875 4.390625 33.296875 12.1875 
C 33.296875 17.296875 30.59375 20 29.296875 21.1875 
C 26.296875 24.296875 22.796875 25 18.59375 25.796875 
C 13.09375 27 6.09375 28.390625 6.09375 34.5 
C 6.09375 37.09375 7.5 42.59375 17.59375 42.59375 
C 28.296875 42.59375 28.90625 32.59375 29.09375 29.390625 
C 29.203125 28.890625 29.703125 28.796875 30 28.796875 
C 30.90625 28.796875 30.90625 29.09375 30.90625 30.796875 
z
" id="CMR17-115"/>
      </defs>
      <use transform="scale(0.996264)" xlink:href="#CMR17-71"/>
      <use transform="translate(72.355346 0)scale(0.996264)" xlink:href="#CMR17-80"/>
      <use transform="translate(127.134391 0)scale(0.996264)" xlink:href="#CMR17-65"/>
      <use transform="translate(196.206821 0)scale(0.996264)" xlink:href="#CMR17-115"/>
     </g>
    </g>
   </g>
   <g id="matplotlib.axis_2">
    <g id="ytick_1">
     <g id="line2d_8">
      <path clip-path="url(#pa2c7fa0f9a)" d="M 54 252 
L 388.8 252 
" style="fill:none;stroke:#b0b0b0;stroke-linecap:square;stroke-opacity:0.75;stroke-width:0.8;"/>
     </g>
     <g id="line2d_9">
      <defs>
       <path d="M 0 0 
L -3.5 0 
" id="m7a53441d52" style="stroke:#000000;stroke-width:0.8;"/>
      </defs>
      <g>
       <use style="stroke:#000000;stroke-width:0.8;" x="54" xlink:href="#m7a53441d52" y="252"/>
      </g>
     </g>
     <g id="text_9">
      <!-- $\mathdefault{0}$ -->
      <g transform="translate(42.018665 255.459249)scale(0.1 -0.1)">
       <use transform="scale(0.996264)" xlink:href="#CMR17-48"/>
      </g>
     </g>
    </g>
    <g id="ytick_2">
     <g id="line2d_10">
      <path clip-path="url(#pa2c7fa0f9a)" d="M 54 211.553571 
L 388.8 211.553571 
" style="fill:none;stroke:#b0b0b0;stroke-linecap:square;stroke-opacity:0.75;stroke-width:0.8;"/>
     </g>
     <g id="line2d_11">
      <g>
       <use style="stroke:#000000;stroke-width:0.8;" x="54" xlink:href="#m7a53441d52" y="211.553571"/>
      </g>
     </g>
     <g id="text_10">
      <!-- $\mathdefault{100}$ -->
      <g transform="translate(32.055994 215.012821)scale(0.1 -0.1)">
       <use transform="scale(0.996264)" xlink:href="#CMR17-49"/>
       <use transform="translate(45.690477 0)scale(0.996264)" xlink:href="#CMR17-48"/>
       <use transform="translate(91.380954 0)scale(0.996264)" xlink:href="#CMR17-48"/>
      </g>
     </g>
    </g>
    <g id="ytick_3">
     <g id="line2d_12">
      <path clip-path="url(#pa2c7fa0f9a)" d="M 54 171.107143 
L 388.8 171.107143 
" style="fill:none;stroke:#b0b0b0;stroke-linecap:square;stroke-opacity:0.75;stroke-width:0.8;"/>
     </g>
     <g id="line2d_13">
      <g>
       <use style="stroke:#000000;stroke-width:0.8;" x="54" xlink:href="#m7a53441d52" y="171.107143"/>
      </g>
     </g>
     <g id="text_11">
      <!-- $\mathdefault{200}$ -->
      <g transform="translate(32.055994 174.566392)scale(0.1 -0.1)">
       <use transform="scale(0.996264)" xlink:href="#CMR17-50"/>
       <use transform="translate(45.690477 0)scale(0.996264)" xlink:href="#CMR17-48"/>
       <use transform="translate(91.380954 0)scale(0.996264)" xlink:href="#CMR17-48"/>
      </g>
     </g>
    </g>
    <g id="ytick_4">
     <g id="line2d_14">
      <path clip-path="url(#pa2c7fa0f9a)" d="M 54 130.660714 
L 388.8 130.660714 
" style="fill:none;stroke:#b0b0b0;stroke-linecap:square;stroke-opacity:0.75;stroke-width:0.8;"/>
     </g>
     <g id="line2d_15">
      <g>
       <use style="stroke:#000000;stroke-width:0.8;" x="54" xlink:href="#m7a53441d52" y="130.660714"/>
      </g>
     </g>
     <g id="text_12">
      <!-- $\mathdefault{300}$ -->
      <g transform="translate(32.055994 134.119963)scale(0.1 -0.1)">
       <use transform="scale(0.996264)" xlink:href="#CMR17-51"/>
       <use transform="translate(45.690477 0)scale(0.996264)" xlink:href="#CMR17-48"/>
       <use transform="translate(91.380954 0)scale(0.996264)" xlink:href="#CMR17-48"/>
      </g>
     </g>
    </g>
    <g id="ytick_5">
     <g id="line2d_16">
      <path clip-path="url(#pa2c7fa0f9a)" d="M 54 90.214286 
L 388.8 90.214286 
" style="fill:none;stroke:#b0b0b0;stroke-linecap:square;stroke-opacity:0.75;stroke-width:0.8;"/>
     </g>
     <g id="line2d_17">
      <g>
       <use style="stroke:#000000;stroke-width:0.8;" x="54" xlink:href="#m7a53441d52" y="90.214286"/>
      </g>
     </g>
     <g id="text_13">
      <!-- $\mathdefault{400}$ -->
      <g transform="translate(32.055994 93.673535)scale(0.1 -0.1)">
       <defs>
        <path d="M 33.59375 64.796875 
C 33.59375 66.890625 33.5 67 31.703125 67 
L 2 19.59375 
L 2 17 
L 27.796875 17 
L 27.796875 7.1875 
C 27.796875 3.59375 27.59375 2.59375 20.59375 2.59375 
L 18.703125 2.59375 
L 18.703125 0 
C 21.90625 0.1875 27.296875 0.1875 30.703125 0.1875 
C 34.09375 0.1875 39.5 0.1875 42.703125 0 
L 42.703125 2.59375 
L 40.796875 2.59375 
C 33.796875 2.59375 33.59375 3.59375 33.59375 7.1875 
L 33.59375 17 
L 43.796875 17 
L 43.796875 19.59375 
L 33.59375 19.59375 
z
M 28.09375 58.171875 
L 28.09375 19.59375 
L 4 19.59375 
z
" id="CMR17-52"/>
       </defs>
       <use transform="scale(0.996264)" xlink:href="#CMR17-52"/>
       <use transform="translate(45.690477 0)scale(0.996264)" xlink:href="#CMR17-48"/>
       <use transform="translate(91.380954 0)scale(0.996264)" xlink:href="#CMR17-48"/>
      </g>
     </g>
    </g>
    <g id="ytick_6">
     <g id="line2d_18">
      <path clip-path="url(#pa2c7fa0f9a)" d="M 54 49.767857 
L 388.8 49.767857 
" style="fill:none;stroke:#b0b0b0;stroke-linecap:square;stroke-opacity:0.75;stroke-width:0.8;"/>
     </g>
     <g id="line2d_19">
      <g>
       <use style="stroke:#000000;stroke-width:0.8;" x="54" xlink:href="#m7a53441d52" y="49.767857"/>
      </g>
     </g>
     <g id="text_14">
      <!-- $\mathdefault{500}$ -->
      <g transform="translate(32.055994 53.227106)scale(0.1 -0.1)">
       <defs>
        <path d="M 11.40625 58.59375 
C 12.40625 58.1875 16.5 56.890625 20.703125 56.890625 
C 30 56.890625 35.09375 61.890625 38 64.6875 
C 38 65.484375 38 66 37.40625 66 
C 37.296875 66 37.09375 66 36.296875 65.59375 
C 32.796875 64.09375 28.703125 63 23.703125 63 
C 20.703125 63 16.203125 63.359375 11.296875 65.484375 
C 10.203125 66 10 66 9.90625 66 
C 9.40625 66 9.296875 65.890625 9.296875 63.90625 
L 9.296875 34.859375 
C 9.296875 33.015625 9.296875 32.5 10.296875 32.5 
C 10.796875 32.5 11 32.703125 11.5 33.421875 
C 14.703125 38.046875 19.09375 40 24.09375 40 
C 27.59375 40 35.09375 37.734375 35.09375 20.203125 
C 35.09375 16.984375 35.09375 11.1875 32.09375 6.59375 
C 29.59375 2.484375 25.703125 0.390625 21.40625 0.390625 
C 14.796875 0.390625 8.09375 4.984375 6.296875 12.6875 
C 6.703125 12.59375 7.5 12.390625 7.90625 12.390625 
C 9.203125 12.390625 11.703125 13.09375 11.703125 16.1875 
C 11.703125 18.890625 9.796875 20 7.90625 20 
C 5.59375 20 4.09375 18.59375 4.09375 15.796875 
C 4.09375 7.09375 11 -2 21.59375 -2 
C 31.90625 -2 41.703125 6.890625 41.703125 19.796875 
C 41.703125 32.09375 33.90625 41.59375 24.203125 41.59375 
C 19.09375 41.59375 14.796875 39.6875 11.40625 36 
z
" id="CMR17-53"/>
       </defs>
       <use transform="scale(0.996264)" xlink:href="#CMR17-53"/>
       <use transform="translate(45.690477 0)scale(0.996264)" xlink:href="#CMR17-48"/>
       <use transform="translate(91.380954 0)scale(0.996264)" xlink:href="#CMR17-48"/>
      </g>
     </g>
    </g>
    <g id="text_15">
     <!-- Frequency -->
     <g transform="translate(26.118816 165.502262)rotate(-90)scale(0.1 -0.1)">
      <defs>
       <path d="M 54.40625 67.796875 
L 5.09375 67.796875 
L 5.09375 65.1875 
C 12 65.1875 13.09375 65.1875 13.09375 60.671875 
L 13.09375 7.03125 
C 13.09375 2.59375 12 2.59375 5.09375 2.59375 
L 5.09375 0 
C 8 0.1875 13.59375 0.1875 16.703125 0.1875 
C 20.796875 0.1875 25.59375 0.1875 29.703125 0 
L 29.703125 2.59375 
L 27.5 2.59375 
C 19.90625 2.59375 19.703125 3.578125 19.703125 7.125 
L 19.703125 32.390625 
L 28.703125 32.390625 
C 38 32.390625 38.90625 29.140625 38.90625 20.84375 
L 40.703125 20.84375 
L 40.703125 46.734375 
L 38.90625 46.734375 
C 38.90625 38.296875 38 35 28.703125 35 
L 19.703125 35 
L 19.703125 61.28125 
C 19.703125 64.6875 19.90625 65.1875 23.90625 65.1875 
L 36.796875 65.1875 
C 51.90625 65.1875 53.59375 58.96875 55 45.625 
L 56.796875 45.625 
z
" id="CMR17-70"/>
       <path d="M 15 23.703125 
C 15 33.34375 19.09375 42.390625 26.59375 42.390625 
C 27.296875 42.390625 28 42.296875 28.703125 41.984375 
C 28.703125 41.984375 26.5 41.28125 26.5 38.671875 
C 26.5 36.265625 28.40625 35.265625 29.90625 35.265625 
C 31.09375 35.265625 33.296875 35.96875 33.296875 38.78125 
C 33.296875 41.984375 30.09375 44 26.703125 44 
C 19.09375 44 15.796875 36.5625 14.796875 33.046875 
L 14.703125 33.046875 
L 14.703125 44 
L 3.09375 42.890625 
L 3.09375 40.28125 
C 9 40.28125 9.90625 39.6875 9.90625 34.859375 
L 9.90625 6.921875 
C 9.90625 3.09375 9.5 2.59375 3.09375 2.59375 
L 3.09375 0 
C 5.5 0.1875 10.09375 0.1875 12.703125 0.1875 
C 15.59375 0.1875 20.703125 0.1875 23.40625 0 
L 23.40625 2.59375 
C 16.203125 2.59375 15 2.59375 15 7.109375 
z
" id="CMR17-114"/>
       <path d="M 38.09375 23.484375 
C 38.5 23.890625 38.5 24.09375 38.5 25.09375 
C 38.5 35.171875 33.09375 44 21.703125 44 
C 11.09375 44 2.703125 33.984375 2.703125 21.78125 
C 2.703125 8.65625 12.203125 -1 22.796875 -1 
C 34 -1 38.40625 9.671875 38.40625 11.796875 
C 38.40625 12.5 37.796875 12.5 37.59375 12.5 
C 36.90625 12.5 36.796875 12.296875 36.40625 11.078125 
C 34.203125 4.21875 28.703125 0.796875 23.5 0.796875 
C 19.203125 0.796875 14.90625 3.21875 12.203125 7.65625 
C 9.09375 12.796875 9.09375 18.75 9.09375 23.484375 
z
M 9.203125 25 
C 9.90625 39.234375 17.59375 42.390625 21.59375 42.390625 
C 28.40625 42.390625 33 36.0625 33.09375 25 
z
" id="CMR17-101"/>
       <path d="M 41.09375 44 
L 39.5 44 
L 36.5 34.015625 
C 34.203125 39.359375 30 44 23.296875 44 
C 13.09375 44 3.296875 34.8125 3.296875 21.5 
C 3.296875 8.265625 12.5 -1 22.5 -1 
C 30.203125 -1 34.5 4.9375 35.796875 7.15625 
L 35.796875 -13.03125 
C 35.796875 -16.890625 35.40625 -17.40625 29 -17.40625 
L 29 -20 
C 31.40625 -19.8125 35.796875 -19.8125 38.40625 -19.8125 
C 41 -19.8125 45.5 -19.8125 47.90625 -20 
L 47.90625 -17.40625 
C 41.5 -17.40625 41.09375 -17 41.09375 -13.03125 
z
M 36 13.609375 
C 36 9.28125 32.40625 5.234375 32.09375 4.9375 
C 29 1.40625 25.40625 0.59375 23 0.59375 
C 15.5 0.59375 9.703125 10.1875 9.703125 21.390625 
C 9.703125 33.203125 16.296875 42.1875 24 42.1875 
C 32 42.1875 36 33 36 27.75 
z
" id="CMR17-113"/>
       <path d="M 29.40625 42.890625 
L 29.40625 40.296875 
C 35.296875 40.296875 36.203125 39.6875 36.203125 34.828125 
L 36.203125 16.453125 
C 36.203125 7.96875 31.703125 0.59375 24.296875 0.59375 
C 16.09375 0.59375 15.40625 5.546875 15.40625 10.796875 
L 15.40625 44 
L 3.296875 42.890625 
L 3.296875 40.296875 
C 7.296875 40.296875 10 40.296875 10.09375 36.25 
L 10.09375 16.859375 
C 10.09375 10.09375 10.09375 5.75 12.703125 2.921875 
C 14 1.609375 16.5 -1 23.703125 -1 
C 32.203125 -1 35.5 6.25 36.296875 8.375 
L 36.40625 8.375 
L 36.40625 -1 
L 48.296875 -0.203125 
L 48.296875 2.40625 
C 42.40625 2.40625 41.5 3.015625 41.5 7.859375 
L 41.5 44 
z
" id="CMR17-117"/>
       <path d="M 41.5 30.53125 
C 41.5 35.65625 40.5 44 28.703125 44 
C 20.796875 44 16.703125 37.875 15.203125 33.84375 
L 15.09375 33.84375 
L 15.09375 44 
L 3.296875 42.890625 
L 3.296875 40.28125 
C 9.203125 40.28125 10.09375 39.6875 10.09375 34.859375 
L 10.09375 6.921875 
C 10.09375 3.09375 9.703125 2.59375 3.296875 2.59375 
L 3.296875 0 
C 5.703125 0.1875 10.09375 0.1875 12.703125 0.1875 
C 15.296875 0.1875 19.796875 0.1875 22.203125 0 
L 22.203125 2.59375 
C 15.796875 2.59375 15.40625 3 15.40625 6.921875 
L 15.40625 26.21875 
C 15.40625 35.453125 21 42.390625 28 42.390625 
C 35.40625 42.390625 36.203125 35.765625 36.203125 30.9375 
L 36.203125 6.921875 
C 36.203125 3.09375 35.796875 2.59375 29.40625 2.59375 
L 29.40625 0 
C 31.796875 0.1875 36.203125 0.1875 38.796875 0.1875 
C 41.40625 0.1875 45.90625 0.1875 48.296875 0 
L 48.296875 2.59375 
C 41.90625 2.59375 41.5 3 41.5 6.921875 
z
" id="CMR17-110"/>
       <path d="M 34.90625 35 
C 33 35 30.203125 35 30.203125 31.484375 
C 30.203125 28.6875 32.5 27.890625 33.796875 27.890625 
C 34.5 27.890625 37.40625 28.1875 37.40625 31.6875 
C 37.40625 38.6875 30.59375 44 22.90625 44 
C 12.296875 44 3.296875 34.390625 3.296875 21.546875 
C 3.296875 8.140625 12.703125 -1 22.90625 -1 
C 35.296875 -1 38.40625 10.5625 38.40625 11.671875 
C 38.40625 12.078125 38.296875 12.375 37.59375 12.375 
C 36.90625 12.375 36.796875 12.28125 36.40625 10.96875 
C 33.796875 2.8125 28.09375 0.796875 23.796875 0.796875 
C 17.40625 0.796875 9.703125 6.734375 9.703125 21.640625 
C 9.703125 36.84375 17.09375 42.1875 23 42.1875 
C 26.90625 42.1875 32.703125 40.34375 34.90625 35 
z
" id="CMR17-99"/>
       <path d="M 39 34.109375 
C 41.5 40.296875 46 40.390625 47.40625 40.390625 
L 47.40625 43 
C 45.5 42.890625 43 42.796875 41.09375 42.796875 
C 39 42.796875 35.703125 42.796875 33.703125 43 
L 33.703125 40.390625 
C 37.5 40.09375 37.59375 37.25 37.59375 36.4375 
C 37.59375 35.4375 37.40625 34.921875 36.90625 33.71875 
L 26 6.390625 
L 14.09375 35.9375 
C 13.59375 37.15625 13.59375 37.859375 13.59375 37.96875 
C 13.59375 40.1875 15.90625 40.390625 18.296875 40.390625 
L 18.296875 43 
C 15.90625 42.796875 11.59375 42.796875 9.09375 42.796875 
C 6.40625 42.796875 3.203125 42.796875 1 43 
L 1 40.390625 
C 6.40625 40.390625 7 39.890625 8.296875 36.640625 
L 23.203125 -0.484375 
C 18.703125 -12.421875 16.09375 -19.40625 9.796875 -19.40625 
C 8.703125 -19.40625 6.203125 -19.109375 4.40625 -17.28125 
C 6.703125 -17.078125 7.703125 -15.65625 7.703125 -13.9375 
C 7.703125 -12.21875 6.5 -10.703125 4.5 -10.703125 
C 2.296875 -10.703125 1.203125 -12.21875 1.203125 -14.046875 
C 1.203125 -18.09375 5.296875 -21 9.796875 -21 
C 15.59375 -21 19.203125 -15.359375 21.203125 -10.296875 
z
" id="CMR17-121"/>
      </defs>
      <use transform="scale(0.996264)" xlink:href="#CMR17-70"/>
      <use transform="translate(52.176591 0)scale(0.996264)" xlink:href="#CMR17-114"/>
      <use transform="translate(87.457359 0)scale(0.996264)" xlink:href="#CMR17-101"/>
      <use transform="translate(127.943019 0)scale(0.996264)" xlink:href="#CMR17-113"/>
      <use transform="translate(176.235935 0)scale(0.996264)" xlink:href="#CMR17-117"/>
      <use transform="translate(227.131305 0)scale(0.996264)" xlink:href="#CMR17-101"/>
      <use transform="translate(267.616966 0)scale(0.996264)" xlink:href="#CMR17-110"/>
      <use transform="translate(318.512335 0)scale(0.996264)" xlink:href="#CMR17-99"/>
      <use transform="translate(358.997996 0)scale(0.996264)" xlink:href="#CMR17-121"/>
     </g>
    </g>
   </g>
   <g id="patch_51">
    <path d="M 54 252 
L 54 34.56 
" style="fill:none;stroke:#000000;stroke-linecap:square;stroke-linejoin:miter;stroke-width:0.8;"/>
   </g>
   <g id="patch_52">
    <path d="M 388.8 252 
L 388.8 34.56 
" style="fill:none;stroke:#000000;stroke-linecap:square;stroke-linejoin:miter;stroke-width:0.8;"/>
   </g>
   <g id="patch_53">
    <path d="M 54 252 
L 388.8 252 
" style="fill:none;stroke:#000000;stroke-linecap:square;stroke-linejoin:miter;stroke-width:0.8;"/>
   </g>
   <g id="patch_54">
    <path d="M 54 34.56 
L 388.8 34.56 
" style="fill:none;stroke:#000000;stroke-linecap:square;stroke-linejoin:miter;stroke-width:0.8;"/>
   </g>
   <g id="text_16">
    <!-- GPA Difference -->
    <g transform="translate(181.531159 28.56)scale(0.12 -0.12)">
     <defs>
      <path d="M 5.203125 68 
L 5.203125 65.390625 
C 12.09375 65.390625 13.203125 65.390625 13.203125 60.90625 
L 13.203125 7.078125 
C 13.203125 2.59375 12.09375 2.59375 5.203125 2.59375 
L 5.203125 0 
L 37 0 
C 53.09375 0 66 14.734375 66 33.4375 
C 66 52.25 53.296875 68 37 68 
z
M 23.796875 2.59375 
C 19.796875 2.59375 19.59375 3.09375 19.59375 6.46875 
L 19.59375 61.5 
C 19.59375 64.890625 19.796875 65.390625 23.796875 65.390625 
L 35 65.390625 
C 43.296875 65.390625 58.59375 60.515625 58.59375 33.4375 
C 58.59375 19.40625 54.5 13.734375 52.59375 11.046875 
C 50.203125 7.96875 44.5 2.59375 35 2.59375 
z
" id="CMR17-68"/>
      <path d="M 15.5 61.890625 
C 15.5 64.09375 13.703125 66 11.40625 66 
C 9.203125 66 7.296875 64.1875 7.296875 61.890625 
C 7.296875 59.6875 9.09375 57.796875 11.40625 57.796875 
C 13.59375 57.796875 15.5 59.59375 15.5 61.890625 
z
M 3.796875 42.890625 
L 3.796875 40.296875 
C 9.40625 40.296875 10.203125 39.6875 10.203125 34.859375 
L 10.203125 6.921875 
C 10.203125 3.09375 9.796875 2.59375 3.40625 2.59375 
L 3.40625 0 
C 5.796875 0.1875 10.09375 0.1875 12.59375 0.1875 
C 15 0.1875 19.09375 0.1875 21.40625 0 
L 21.40625 2.59375 
C 15.5 2.59375 15.296875 3.203125 15.296875 6.8125 
L 15.296875 44 
z
" id="CMR17-105"/>
      <path d="M 39.90625 40.390625 
L 51.296875 40.390625 
L 51.296875 43 
L 39.703125 43 
L 39.703125 55 
C 39.703125 63.234375 43.90625 68.390625 48.203125 68.390625 
C 49.5 68.390625 51 68 52 67.296875 
C 51.203125 67.09375 49.09375 66.40625 49.09375 63.921875 
C 49.09375 61.34375 51.09375 60.546875 52.5 60.546875 
C 53.90625 60.546875 55.90625 61.34375 55.90625 63.921875 
C 55.90625 67.703125 52.296875 70 48.296875 70 
C 44.40625 70 41.203125 68.09375 38.703125 65.71875 
C 36.40625 68.984375 32.59375 70 28.703125 70 
C 20.90625 70 9.90625 65.515625 9.90625 54.59375 
L 9.90625 43 
L 1.90625 43 
L 1.90625 40.390625 
L 9.90625 40.390625 
L 9.90625 6.890625 
C 9.90625 3.09375 9.5 2.59375 3.09375 2.59375 
L 3.09375 0 
C 5.5 0.1875 9.90625 0.1875 12.40625 0.1875 
C 15 0.1875 19.40625 0.1875 21.796875 0 
L 21.796875 2.59375 
C 15.40625 2.59375 15 3 15 6.890625 
L 15 40.390625 
L 34.796875 40.390625 
L 34.796875 6.890625 
C 34.796875 3.09375 34.40625 2.59375 28 2.59375 
L 28 0 
C 30.40625 0.1875 35 0.1875 37.59375 0.1875 
C 40.5 0.1875 45.59375 0.1875 48.296875 0 
L 48.296875 2.59375 
C 41.09375 2.59375 39.90625 2.59375 39.90625 7.09375 
z
M 14.796875 43 
L 14.796875 54.59375 
C 14.796875 63.625 21.796875 68.390625 28.5 68.390625 
C 30 68.390625 33.90625 68.09375 36.296875 65.90625 
C 34.5 65.8125 32.796875 65.015625 32.796875 62.53125 
C 32.796875 59.953125 35.09375 59.265625 35.296875 59.265625 
C 34.796875 57.484375 34.796875 55.5 34.796875 54.796875 
L 34.796875 43 
z
" id="CMR17-11"/>
     </defs>
     <use transform="scale(0.996264)" xlink:href="#CMR17-71"/>
     <use transform="translate(72.355346 0)scale(0.996264)" xlink:href="#CMR17-80"/>
     <use transform="translate(127.134391 0)scale(0.996264)" xlink:href="#CMR17-65"/>
     <use transform="translate(226.282787 0)scale(0.996264)" xlink:href="#CMR17-68"/>
     <use transform="translate(296.676343 0)scale(0.996264)" xlink:href="#CMR17-105"/>
     <use transform="translate(321.547402 0)scale(0.996264)" xlink:href="#CMR17-11"/>
     <use transform="translate(373.892079 0)scale(0.996264)" xlink:href="#CMR17-101"/>
     <use transform="translate(414.377739 0)scale(0.996264)" xlink:href="#CMR17-114"/>
     <use transform="translate(449.658507 0)scale(0.996264)" xlink:href="#CMR17-101"/>
     <use transform="translate(490.144168 0)scale(0.996264)" xlink:href="#CMR17-110"/>
     <use transform="translate(541.039537 0)scale(0.996264)" xlink:href="#CMR17-99"/>
     <use transform="translate(581.525198 0)scale(0.996264)" xlink:href="#CMR17-101"/>
    </g>
   </g>
  </g>
 </g>
 <defs>
  <clipPath id="pa2c7fa0f9a">
   <rect height="217.44" width="334.8" x="54" y="34.56"/>
  </clipPath>
 </defs>
</svg>
