<?xml version="1.0" encoding="utf-8" standalone="no"?>
<!DOCTYPE svg PUBLIC "-//W3C//DTD SVG 1.1//EN"
  "http://www.w3.org/Graphics/SVG/1.1/DTD/svg11.dtd">
<!-- Created with matplotlib (https://matplotlib.org/) -->
<svg height="351.951275pt" version="1.1" viewBox="0 0 504.213894 351.951275" width="504.213894pt" xmlns="http://www.w3.org/2000/svg" xmlns:xlink="http://www.w3.org/1999/xlink">
 <metadata>
  <rdf:RDF xmlns:cc="http://creativecommons.org/ns#" xmlns:dc="http://purl.org/dc/elements/1.1/" xmlns:rdf="http://www.w3.org/1999/02/22-rdf-syntax-ns#">
   <cc:Work>
    <dc:type rdf:resource="http://purl.org/dc/dcmitype/StillImage"/>
    <dc:date>2021-09-11T23:36:18.883439</dc:date>
    <dc:format>image/svg+xml</dc:format>
    <dc:creator>
     <cc:Agent>
      <dc:title>Matplotlib v3.3.4, https://matplotlib.org/</dc:title>
     </cc:Agent>
    </dc:creator>
   </cc:Work>
  </rdf:RDF>
 </metadata>
 <defs>
  <style type="text/css">*{stroke-linecap:butt;stroke-linejoin:round;}</style>
 </defs>
 <g id="figure_1">
  <g id="patch_1">
   <path d="M 0 351.951275 
L 504.213894 351.951275 
L 504.213894 0 
L 0 0 
z
" style="fill:none;"/>
  </g>
  <g id="axes_1">
   <g id="patch_2">
    <path d="M 52.515835 309.50218 
L 484.515835 309.50218 
L 484.515835 21.50218 
L 52.515835 21.50218 
z
" style="fill:#ffffff;"/>
   </g>
   <g id="patch_3">
    <path clip-path="url(#pfdd8082c00)" d="M 72.152198 268.187606 
L 101.243107 268.187606 
L 101.243107 296.411271 
L 72.152198 296.411271 
z
" style="fill:#1f77b4;"/>
   </g>
   <g id="patch_4">
    <path clip-path="url(#pfdd8082c00)" d="M 108.515835 268.187606 
L 137.606744 268.187606 
L 137.606744 237.055306 
L 108.515835 237.055306 
z
" style="fill:#1f77b4;"/>
   </g>
   <g id="patch_5">
    <path clip-path="url(#pfdd8082c00)" d="M 144.879471 268.187606 
L 173.97038 268.187606 
L 173.97038 212.139652 
L 144.879471 212.139652 
z
" style="fill:#1f77b4;"/>
   </g>
   <g id="patch_6">
    <path clip-path="url(#pfdd8082c00)" d="M 181.243107 268.187606 
L 210.334016 268.187606 
L 210.334016 121.619949 
L 181.243107 121.619949 
z
" style="fill:#1f77b4;"/>
   </g>
   <g id="patch_7">
    <path clip-path="url(#pfdd8082c00)" d="M 217.606744 268.187606 
L 246.697653 268.187606 
L 246.697653 132.779035 
L 217.606744 132.779035 
z
" style="fill:#1f77b4;"/>
   </g>
   <g id="patch_8">
    <path clip-path="url(#pfdd8082c00)" d="M 253.97038 268.187606 
L 283.061289 268.187606 
L 283.061289 34.593089 
L 253.97038 34.593089 
z
" style="fill:#1f77b4;"/>
   </g>
   <g id="patch_9">
    <path clip-path="url(#pfdd8082c00)" d="M 290.334016 268.187606 
L 319.424926 268.187606 
L 319.424926 81.896792 
L 290.334016 81.896792 
z
" style="fill:#1f77b4;"/>
   </g>
   <g id="patch_10">
    <path clip-path="url(#pfdd8082c00)" d="M 326.697653 268.187606 
L 355.788562 268.187606 
L 355.788562 121.834718 
L 326.697653 121.834718 
z
" style="fill:#1f77b4;"/>
   </g>
   <g id="patch_11">
    <path clip-path="url(#pfdd8082c00)" d="M 363.061289 268.187606 
L 392.152198 268.187606 
L 392.152198 184.032472 
L 363.061289 184.032472 
z
" style="fill:#1f77b4;"/>
   </g>
   <g id="patch_12">
    <path clip-path="url(#pfdd8082c00)" d="M 399.424926 268.187606 
L 428.515835 268.187606 
L 428.515835 242.739777 
L 399.424926 242.739777 
z
" style="fill:#1f77b4;"/>
   </g>
   <g id="patch_13">
    <path clip-path="url(#pfdd8082c00)" d="M 435.788562 268.187606 
L 464.879471 268.187606 
L 464.879471 279.123954 
L 435.788562 279.123954 
z
" style="fill:#1f77b4;"/>
   </g>
   <g id="matplotlib.axis_1">
    <g id="xtick_1">
     <g id="line2d_1">
      <defs>
       <path d="M 0 0 
L 0 3.5 
" id="m1f89bb92c9" style="stroke:#000000;stroke-width:0.8;"/>
      </defs>
      <g>
       <use style="stroke:#000000;stroke-width:0.8;" x="86.697653" xlink:href="#m1f89bb92c9" y="309.50218"/>
      </g>
     </g>
     <g id="text_1">
      <!-- Materials in Braille -->
      <g transform="translate(55.553738 320.653285)scale(0.06 -0.06)">
       <defs>
        <path d="M 20.90625 66.390625 
C 20.296875 67.890625 20.203125 68 18.09375 68 
L 5.296875 68 
L 5.296875 65.390625 
C 12.203125 65.390625 13.296875 65.390625 13.296875 60.90625 
L 13.296875 9.75 
C 13.296875 7.265625 13.296875 2.59375 5.296875 2.59375 
L 5.296875 0 
C 7.59375 0.1875 11.796875 0.1875 14.296875 0.1875 
C 16.796875 0.1875 21 0.1875 23.296875 0 
L 23.296875 2.59375 
C 15.296875 2.59375 15.296875 7.265625 15.296875 9.75 
L 15.296875 64.984375 
L 15.40625 64.984375 
L 38.90625 1.59375 
C 39.296875 0.59375 39.5 0 40.296875 0 
C 41.09375 0 41.296875 0.59375 41.703125 1.59375 
L 65.40625 65.484375 
L 65.5 65.484375 
L 65.5 7.078125 
C 65.5 2.59375 64.40625 2.59375 57.5 2.59375 
L 57.5 0 
C 60.203125 0.1875 65.59375 0.1875 68.5 0.1875 
C 71.40625 0.1875 76.90625 0.1875 79.59375 0 
L 79.59375 2.59375 
C 72.703125 2.59375 71.59375 2.59375 71.59375 7.078125 
L 71.59375 60.90625 
C 71.59375 65.390625 72.703125 65.390625 79.59375 65.390625 
L 79.59375 68 
L 66.90625 68 
C 64.796875 68 64.703125 67.890625 64.09375 66.390625 
L 42.5 8.0625 
z
" id="CMR17-77"/>
        <path d="M 36 25.875 
C 36 32 36 35.546875 31.796875 39.59375 
C 28.09375 42.984375 23.796875 44 20.40625 44 
C 12.5 44 6.796875 37.625 6.796875 30.890625 
C 6.796875 27.1875 9.796875 27 10.40625 27 
C 11.703125 27 14 27.796875 14 30.59375 
C 14 33.09375 12.09375 34.1875 10.40625 34.1875 
C 10 34.1875 9.5 34.09375 9.203125 34 
C 11.296875 40.53125 16.703125 42.390625 20.203125 42.390625 
C 25.203125 42.390625 30.703125 37.828125 30.703125 29.296875 
L 30.703125 25.5 
C 24.796875 25.296875 17.703125 24.5 12.09375 21.453125 
C 5.796875 17.921875 4 12.84375 4 9 
C 4 1.203125 13 -1 18.296875 -1 
C 23.796875 -1 28.90625 2.109375 31.09375 7.890625 
C 31.296875 3.421875 34.09375 -0.609375 38.5 -0.609375 
C 40.59375 -0.609375 45.90625 0.796875 45.90625 8.796875 
L 45.90625 14.46875 
L 44.09375 14.46875 
L 44.09375 8.703125 
C 44.09375 2.515625 41.40625 1.703125 40.09375 1.703125 
C 36 1.703125 36 6.96875 36 11.4375 
z
M 30.703125 13.859375 
C 30.703125 5.046875 24.5 0.59375 19 0.59375 
C 14 0.59375 10.09375 4.34375 10.09375 9 
C 10.09375 12.046875 11.40625 17.40625 17.203125 20.65625 
C 22 23.390625 27.5 23.796875 30.703125 24 
z
" id="CMR17-97"/>
        <path d="M 15.09375 40.390625 
L 29.09375 40.390625 
L 29.09375 43 
L 15.09375 43 
L 15.09375 62 
L 13.296875 62 
C 13.09375 51.4375 9.59375 42.1875 1.09375 41.984375 
L 1.09375 40.390625 
L 9.796875 40.390625 
L 9.796875 12.15625 
C 9.796875 10.234375 9.796875 -1 21.40625 -1 
C 27.296875 -1 30.703125 4.8125 30.703125 12.25 
L 30.703125 17.984375 
L 28.90625 17.984375 
L 28.90625 12.34375 
C 28.90625 5.421875 26.203125 0.796875 22 0.796875 
C 19.09375 0.796875 15.09375 2.796875 15.09375 11.953125 
z
" id="CMR17-116"/>
        <path d="M 38.09375 23.484375 
C 38.5 23.890625 38.5 24.09375 38.5 25.09375 
C 38.5 35.171875 33.09375 44 21.703125 44 
C 11.09375 44 2.703125 33.984375 2.703125 21.78125 
C 2.703125 8.65625 12.203125 -1 22.796875 -1 
C 34 -1 38.40625 9.671875 38.40625 11.796875 
C 38.40625 12.5 37.796875 12.5 37.59375 12.5 
C 36.90625 12.5 36.796875 12.296875 36.40625 11.078125 
C 34.203125 4.21875 28.703125 0.796875 23.5 0.796875 
C 19.203125 0.796875 14.90625 3.21875 12.203125 7.65625 
C 9.09375 12.796875 9.09375 18.75 9.09375 23.484375 
z
M 9.203125 25 
C 9.90625 39.234375 17.59375 42.390625 21.59375 42.390625 
C 28.40625 42.390625 33 36.0625 33.09375 25 
z
" id="CMR17-101"/>
        <path d="M 15 23.703125 
C 15 33.34375 19.09375 42.390625 26.59375 42.390625 
C 27.296875 42.390625 28 42.296875 28.703125 41.984375 
C 28.703125 41.984375 26.5 41.28125 26.5 38.671875 
C 26.5 36.265625 28.40625 35.265625 29.90625 35.265625 
C 31.09375 35.265625 33.296875 35.96875 33.296875 38.78125 
C 33.296875 41.984375 30.09375 44 26.703125 44 
C 19.09375 44 15.796875 36.5625 14.796875 33.046875 
L 14.703125 33.046875 
L 14.703125 44 
L 3.09375 42.890625 
L 3.09375 40.28125 
C 9 40.28125 9.90625 39.6875 9.90625 34.859375 
L 9.90625 6.921875 
C 9.90625 3.09375 9.5 2.59375 3.09375 2.59375 
L 3.09375 0 
C 5.5 0.1875 10.09375 0.1875 12.703125 0.1875 
C 15.59375 0.1875 20.703125 0.1875 23.40625 0 
L 23.40625 2.59375 
C 16.203125 2.59375 15 2.59375 15 7.109375 
z
" id="CMR17-114"/>
        <path d="M 15.5 61.890625 
C 15.5 64.09375 13.703125 66 11.40625 66 
C 9.203125 66 7.296875 64.1875 7.296875 61.890625 
C 7.296875 59.6875 9.09375 57.796875 11.40625 57.796875 
C 13.59375 57.796875 15.5 59.59375 15.5 61.890625 
z
M 3.796875 42.890625 
L 3.796875 40.296875 
C 9.40625 40.296875 10.203125 39.6875 10.203125 34.859375 
L 10.203125 6.921875 
C 10.203125 3.09375 9.796875 2.59375 3.40625 2.59375 
L 3.40625 0 
C 5.796875 0.1875 10.09375 0.1875 12.59375 0.1875 
C 15 0.1875 19.09375 0.1875 21.40625 0 
L 21.40625 2.59375 
C 15.5 2.59375 15.296875 3.203125 15.296875 6.8125 
L 15.296875 44 
z
" id="CMR17-105"/>
        <path d="M 15.296875 69 
L 3.40625 67.890625 
L 3.40625 65.296875 
C 9.296875 65.296875 10.203125 64.703125 10.203125 59.921875 
L 10.203125 6.859375 
C 10.203125 3.09375 9.796875 2.59375 3.40625 2.59375 
L 3.40625 0 
C 5.796875 0.1875 10.203125 0.1875 12.703125 0.1875 
C 15.296875 0.1875 19.703125 0.1875 22.09375 0 
L 22.09375 2.59375 
C 15.703125 2.59375 15.296875 2.984375 15.296875 6.859375 
z
" id="CMR17-108"/>
        <path d="M 30.90625 42 
C 30.90625 43.796875 30.796875 43.890625 30.203125 43.890625 
C 29.796875 43.890625 29.703125 43.796875 28.5 42.296875 
C 28.203125 41.890625 27.296875 40.890625 27 40.5 
C 23.796875 43.890625 19.296875 44 17.59375 44 
C 6.5 44 2.5 38.1875 2.5 32.390625 
C 2.5 23.390625 12.703125 21.296875 15.59375 20.6875 
C 21.90625 19.390625 24.09375 19 26.203125 17.1875 
C 27.5 16 29.703125 13.796875 29.703125 10.1875 
C 29.703125 6 27.296875 0.59375 18.09375 0.59375 
C 9.40625 0.59375 6.296875 7.1875 4.5 16 
C 4.203125 17.390625 4.203125 17.5 3.40625 17.5 
C 2.59375 17.5 2.5 17.390625 2.5 15.390625 
L 2.5 1 
C 2.5 -0.8125 2.59375 -0.90625 3.203125 -0.90625 
C 3.703125 -0.90625 3.796875 -0.8125 4.296875 0 
C 4.90625 0.890625 6.40625 3.296875 7 4.296875 
C 9 1.59375 12.5 -1 18.09375 -1 
C 28 -1 33.296875 4.390625 33.296875 12.1875 
C 33.296875 17.296875 30.59375 20 29.296875 21.1875 
C 26.296875 24.296875 22.796875 25 18.59375 25.796875 
C 13.09375 27 6.09375 28.390625 6.09375 34.5 
C 6.09375 37.09375 7.5 42.59375 17.59375 42.59375 
C 28.296875 42.59375 28.90625 32.59375 29.09375 29.390625 
C 29.203125 28.890625 29.703125 28.796875 30 28.796875 
C 30.90625 28.796875 30.90625 29.09375 30.90625 30.796875 
z
" id="CMR17-115"/>
        <path d="M 41.5 30.53125 
C 41.5 35.65625 40.5 44 28.703125 44 
C 20.796875 44 16.703125 37.875 15.203125 33.84375 
L 15.09375 33.84375 
L 15.09375 44 
L 3.296875 42.890625 
L 3.296875 40.28125 
C 9.203125 40.28125 10.09375 39.6875 10.09375 34.859375 
L 10.09375 6.921875 
C 10.09375 3.09375 9.703125 2.59375 3.296875 2.59375 
L 3.296875 0 
C 5.703125 0.1875 10.09375 0.1875 12.703125 0.1875 
C 15.296875 0.1875 19.796875 0.1875 22.203125 0 
L 22.203125 2.59375 
C 15.796875 2.59375 15.40625 3 15.40625 6.921875 
L 15.40625 26.21875 
C 15.40625 35.453125 21 42.390625 28 42.390625 
C 35.40625 42.390625 36.203125 35.765625 36.203125 30.9375 
L 36.203125 6.921875 
C 36.203125 3.09375 35.796875 2.59375 29.40625 2.59375 
L 29.40625 0 
C 31.796875 0.1875 36.203125 0.1875 38.796875 0.1875 
C 41.40625 0.1875 45.90625 0.1875 48.296875 0 
L 48.296875 2.59375 
C 41.90625 2.59375 41.5 3 41.5 6.921875 
z
" id="CMR17-110"/>
        <path d="M 5.203125 68 
L 5.203125 65.390625 
C 12.09375 65.390625 13.203125 65.390625 13.203125 60.890625 
L 13.203125 7.046875 
C 13.203125 2.59375 12.09375 2.59375 5.203125 2.59375 
L 5.203125 0 
L 39.59375 0 
C 52.40625 0 60.703125 9.03125 60.703125 18.046875 
C 60.703125 26.96875 52.5 34.59375 41.796875 35.296875 
C 51.40625 37.1875 58.09375 43.59375 58.09375 51.1875 
C 58.09375 59.5 49.90625 68 37 68 
z
M 19.5 36 
L 19.5 61.5 
C 19.5 64.890625 19.703125 65.390625 23.703125 65.390625 
L 36.5 65.390625 
C 46.40625 65.390625 50.796875 57.390625 50.796875 51.1875 
C 50.796875 43.59375 44.703125 36 33.90625 36 
z
M 23.703125 2.59375 
C 19.703125 2.59375 19.5 3.09375 19.5 6.453125 
L 19.5 34.390625 
L 38 34.390625 
C 48.296875 34.390625 53.296875 25.375 53.296875 18.140625 
C 53.296875 10.90625 47.59375 2.59375 36.703125 2.59375 
z
" id="CMR17-66"/>
       </defs>
       <use transform="scale(0.996264)" xlink:href="#CMR17-77"/>
       <use transform="translate(84.686941 0)scale(0.996264)" xlink:href="#CMR17-97"/>
       <use transform="translate(130.377418 0)scale(0.996264)" xlink:href="#CMR17-116"/>
       <use transform="translate(165.658185 0)scale(0.996264)" xlink:href="#CMR17-101"/>
       <use transform="translate(206.143846 0)scale(0.996264)" xlink:href="#CMR17-114"/>
       <use transform="translate(241.424614 0)scale(0.996264)" xlink:href="#CMR17-105"/>
       <use transform="translate(266.295672 0)scale(0.996264)" xlink:href="#CMR17-97"/>
       <use transform="translate(311.986149 0)scale(0.996264)" xlink:href="#CMR17-108"/>
       <use transform="translate(336.857208 0)scale(0.996264)" xlink:href="#CMR17-115"/>
       <use transform="translate(402.734512 0)scale(0.996264)" xlink:href="#CMR17-105"/>
       <use transform="translate(427.60557 0)scale(0.996264)" xlink:href="#CMR17-110"/>
       <use transform="translate(508.576906 0)scale(0.996264)" xlink:href="#CMR17-66"/>
       <use transform="translate(573.765661 0)scale(0.996264)" xlink:href="#CMR17-114"/>
       <use transform="translate(609.046429 0)scale(0.996264)" xlink:href="#CMR17-97"/>
       <use transform="translate(654.736906 0)scale(0.996264)" xlink:href="#CMR17-105"/>
       <use transform="translate(679.607964 0)scale(0.996264)" xlink:href="#CMR17-108"/>
       <use transform="translate(704.479023 0)scale(0.996264)" xlink:href="#CMR17-108"/>
       <use transform="translate(729.350081 0)scale(0.996264)" xlink:href="#CMR17-101"/>
      </g>
     </g>
    </g>
    <g id="xtick_2">
     <g id="line2d_2">
      <g>
       <use style="stroke:#000000;stroke-width:0.8;" x="123.061289" xlink:href="#m1f89bb92c9" y="309.50218"/>
      </g>
     </g>
     <g id="text_2">
      <!-- Text to Speech Devices -->
      <g transform="translate(85.726768 330.733285)scale(0.06 -0.06)">
       <defs>
        <path d="M 62.203125 67.6875 
L 4.5 67.6875 
L 2.796875 45.6875 
L 4.59375 45.6875 
C 5.90625 62.203125 7.296875 65.09375 22.703125 65.09375 
C 24.5 65.09375 27.40625 65.09375 28.203125 64.984375 
C 30.09375 64.6875 30.09375 63.5 30.09375 61.203125 
L 30.09375 7.265625 
C 30.09375 3.6875 29.796875 2.59375 21.5 2.59375 
L 18.703125 2.59375 
L 18.703125 0 
C 23.5 0.09375 28.5 0.1875 33.40625 0.1875 
C 38.296875 0.1875 43.296875 0.09375 48.09375 0 
L 48.09375 2.59375 
L 45.296875 2.59375 
C 37 2.59375 36.703125 3.6875 36.703125 7.265625 
L 36.703125 61.203125 
C 36.703125 63.390625 36.703125 64.59375 38.5 64.984375 
C 39.296875 65.09375 42.203125 65.09375 44 65.09375 
C 59.296875 65.09375 60.796875 62.203125 62.09375 45.6875 
L 63.90625 45.6875 
z
" id="CMR17-84"/>
        <path d="M 26 23.296875 
C 29 27.1875 32.40625 31.59375 35.203125 34.890625 
C 38.5 38.6875 42.296875 40.296875 46.703125 40.390625 
L 46.703125 43 
C 45 42.890625 41.5 42.796875 39.703125 42.796875 
C 37 42.796875 33.90625 42.796875 31.59375 43 
L 31.59375 40.390625 
C 33 40.1875 33.796875 39.1875 33.796875 37.796875 
C 33.796875 36 32.796875 34.890625 32.296875 34.1875 
L 24.90625 24.796875 
L 16.09375 36.296875 
C 15.203125 37.390625 15.203125 37.59375 15.203125 38.09375 
C 15.203125 39.296875 16.203125 40.296875 17.90625 40.390625 
L 17.90625 43 
C 15.5 42.796875 11.203125 42.796875 8.703125 42.796875 
C 6 42.796875 2.796875 42.796875 0.59375 43 
L 0.59375 40.390625 
C 6 40.390625 7.203125 40 9.59375 37 
L 21.09375 22.09375 
C 21.296875 21.890625 21.796875 21.296875 21.796875 21 
C 21.796875 20.59375 13.09375 9.890625 12 8.5 
C 7.5 3.09375 2.796875 2.6875 0.09375 2.59375 
L 0.09375 0 
C 1.796875 0.09375 5.296875 0.1875 7.09375 0.1875 
C 9.09375 0.1875 13.5 0.1875 15.296875 0 
L 15.296875 2.59375 
C 14.703125 2.6875 13.09375 2.890625 13.09375 5.1875 
C 13.09375 7 13.90625 8.09375 14.796875 9.296875 
L 23.09375 19.5 
L 31.796875 8.1875 
C 32.59375 7.09375 33.796875 5.59375 33.796875 4.890625 
C 33.796875 3.5 32.59375 2.6875 31 2.59375 
L 31 0 
C 33.40625 0.1875 37.703125 0.1875 40.203125 0.1875 
C 42.90625 0.1875 46.09375 0.1875 48.296875 0 
L 48.296875 2.59375 
C 43.296875 2.59375 41.796875 2.796875 39.40625 5.890625 
z
" id="CMR17-120"/>
        <path d="M 43.09375 21.1875 
C 43.09375 34 33.796875 44 22.90625 44 
C 12 44 2.703125 34 2.703125 21.1875 
C 2.703125 8.59375 12 -1 22.90625 -1 
C 33.796875 -1 43.09375 8.59375 43.09375 21.1875 
z
M 22.90625 0.796875 
C 18.203125 0.796875 14.203125 3.59375 11.90625 7.5 
C 9.40625 12 9.09375 17.59375 9.09375 22 
C 9.09375 26.1875 9.296875 31.390625 11.90625 35.890625 
C 13.90625 39.1875 17.796875 42.390625 22.90625 42.390625 
C 27.40625 42.390625 31.203125 39.890625 33.59375 36.390625 
C 36.703125 31.6875 36.703125 25.09375 36.703125 22 
C 36.703125 18.09375 36.5 12.09375 33.796875 7.296875 
C 31 2.6875 26.703125 0.796875 22.90625 0.796875 
z
" id="CMR17-111"/>
        <path d="M 43.796875 67.984375 
C 43.796875 69.796875 43.703125 69.890625 43.09375 69.890625 
C 42.5 69.890625 42.296875 69.484375 41.90625 68.59375 
L 38.90625 61.953125 
C 35.09375 67.5 29.296875 70 23 70 
C 12.796875 70 4.59375 61.84375 4.59375 51.578125 
C 4.59375 48.453125 5.296875 44.015625 8.703125 39.78125 
C 12.40625 35.15625 15.90625 34.34375 23.90625 32.234375 
C 26.90625 31.421875 31.90625 30.109375 32.90625 29.703125 
C 38.59375 27.296875 41.59375 21.25 41.59375 15.609375 
C 41.59375 8.34375 36.5 0.59375 27.796875 0.59375 
C 17.09375 0.59375 7.09375 6.640625 6.40625 20.75 
C 6.296875 22.359375 6.203125 22.453125 5.5 22.453125 
C 4.703125 22.453125 4.59375 22.359375 4.59375 20.34375 
L 4.59375 0 
C 4.59375 -1.8125 4.703125 -1.90625 5.296875 -1.90625 
C 6 -1.90625 6.203125 -1.40625 7.59375 1.703125 
C 7.703125 2 7.703125 2.203125 9.59375 6.03125 
C 14.59375 -0.609375 23 -2 27.796875 -2 
C 38.703125 -2 46.40625 7.140625 46.40625 17.828125 
C 46.40625 23.0625 44.5 27.09375 43.40625 28.90625 
C 39.203125 35.359375 34.703125 36.5625 29.90625 37.765625 
C 29.203125 38.078125 29 38.078125 23.40625 39.484375 
C 18 40.890625 15.703125 41.59375 13.203125 44.3125 
C 10.40625 47.4375 9.40625 50.671875 9.40625 53.890625 
C 9.40625 60.4375 14.59375 67.59375 23.09375 67.59375 
C 33.703125 67.59375 40.296875 60.03125 41.796875 47.4375 
C 42.09375 45.625 42.203125 45.53125 42.90625 45.53125 
C 43.796875 45.53125 43.796875 45.828125 43.796875 47.546875 
z
" id="CMR17-83"/>
        <path d="M 22 -17.40625 
C 15.59375 -17.40625 15.203125 -17 15.203125 -13.03125 
L 15.203125 5.9375 
C 18.09375 1.703125 22.296875 -1 27.59375 -1 
C 37.59375 -1 47.703125 7.859375 47.703125 21.59375 
C 47.703125 34.3125 39 44 28.703125 44 
C 22.703125 44 17.796875 40.671875 15 36.640625 
L 15 44 
L 3.09375 42.890625 
L 3.09375 40.265625 
C 9 40.265625 9.90625 39.671875 9.90625 34.8125 
L 9.90625 -13.03125 
C 9.90625 -16.890625 9.5 -17.40625 3.09375 -17.40625 
L 3.09375 -20 
C 5.5 -19.8125 9.90625 -19.8125 12.5 -19.8125 
C 15.09375 -19.8125 19.59375 -19.8125 22 -20 
z
M 15.203125 31.484375 
C 15.203125 32.90625 15.203125 35.015625 19.09375 38.765625 
C 19.59375 39.15625 23 42.1875 28 42.1875 
C 35.296875 42.1875 41.296875 33 41.296875 21.5 
C 41.296875 9.984375 34.90625 0.59375 27 0.59375 
C 23.40625 0.59375 19.5 2.3125 16.5 7.046875 
C 15.203125 9.28125 15.203125 9.875 15.203125 11.5 
z
" id="CMR17-112"/>
        <path d="M 34.90625 35 
C 33 35 30.203125 35 30.203125 31.484375 
C 30.203125 28.6875 32.5 27.890625 33.796875 27.890625 
C 34.5 27.890625 37.40625 28.1875 37.40625 31.6875 
C 37.40625 38.6875 30.59375 44 22.90625 44 
C 12.296875 44 3.296875 34.390625 3.296875 21.546875 
C 3.296875 8.140625 12.703125 -1 22.90625 -1 
C 35.296875 -1 38.40625 10.5625 38.40625 11.671875 
C 38.40625 12.078125 38.296875 12.375 37.59375 12.375 
C 36.90625 12.375 36.796875 12.28125 36.40625 10.96875 
C 33.796875 2.8125 28.09375 0.796875 23.796875 0.796875 
C 17.40625 0.796875 9.703125 6.734375 9.703125 21.640625 
C 9.703125 36.84375 17.09375 42.1875 23 42.1875 
C 26.90625 42.1875 32.703125 40.34375 34.90625 35 
z
" id="CMR17-99"/>
        <path d="M 41.5 30.53125 
C 41.5 35.65625 40.5 44 28.703125 44 
C 20.5 44 16.5 37.375 15.296875 34.046875 
L 15.203125 34.046875 
L 15.203125 69 
L 3.296875 67.890625 
L 3.296875 65.296875 
C 9.203125 65.296875 10.09375 64.703125 10.09375 60.046875 
L 10.09375 6.921875 
C 10.09375 3.09375 9.703125 2.59375 3.296875 2.59375 
L 3.296875 0 
C 5.703125 0.1875 10.09375 0.1875 12.703125 0.1875 
C 15.296875 0.1875 19.796875 0.1875 22.203125 0 
L 22.203125 2.59375 
C 15.796875 2.59375 15.40625 3 15.40625 6.921875 
L 15.40625 26.21875 
C 15.40625 35.453125 21 42.390625 28 42.390625 
C 35.40625 42.390625 36.203125 35.765625 36.203125 30.9375 
L 36.203125 6.921875 
C 36.203125 3.09375 35.796875 2.59375 29.40625 2.59375 
L 29.40625 0 
C 31.796875 0.1875 36.203125 0.1875 38.796875 0.1875 
C 41.40625 0.1875 45.90625 0.1875 48.296875 0 
L 48.296875 2.59375 
C 41.90625 2.59375 41.5 3 41.5 6.921875 
z
" id="CMR17-104"/>
        <path d="M 5.203125 68 
L 5.203125 65.390625 
C 12.09375 65.390625 13.203125 65.390625 13.203125 60.90625 
L 13.203125 7.078125 
C 13.203125 2.59375 12.09375 2.59375 5.203125 2.59375 
L 5.203125 0 
L 37 0 
C 53.09375 0 66 14.734375 66 33.4375 
C 66 52.25 53.296875 68 37 68 
z
M 23.796875 2.59375 
C 19.796875 2.59375 19.59375 3.09375 19.59375 6.46875 
L 19.59375 61.5 
C 19.59375 64.890625 19.796875 65.390625 23.796875 65.390625 
L 35 65.390625 
C 43.296875 65.390625 58.59375 60.515625 58.59375 33.4375 
C 58.59375 19.40625 54.5 13.734375 52.59375 11.046875 
C 50.203125 7.96875 44.5 2.59375 35 2.59375 
z
" id="CMR17-68"/>
        <path d="M 39.09375 33.953125 
C 40 36.171875 41.59375 40.1875 47.40625 40.390625 
L 47.40625 43 
C 45.5 42.890625 43 42.796875 41.09375 42.796875 
C 39 42.796875 35.703125 42.796875 33.703125 43 
L 33.703125 40.390625 
C 36.203125 40.1875 37.59375 38.984375 37.59375 36.375 
C 37.59375 35.46875 37.59375 35.265625 37 33.859375 
L 26 5.921875 
L 14.09375 36.0625 
C 13.5 37.375 13.5 37.578125 13.5 37.984375 
C 13.5 40.390625 16.796875 40.390625 18.296875 40.390625 
L 18.296875 43 
C 15.90625 42.796875 11.5 42.796875 9 42.796875 
C 6.296875 42.796875 3.203125 42.796875 1 43 
L 1 40.390625 
C 4.796875 40.390625 6.90625 40.390625 8.09375 37.28125 
L 22.59375 0.6875 
C 23.203125 -0.8125 23.296875 -1 24.203125 -1 
C 25.09375 -1 25.203125 -0.8125 25.796875 0.6875 
z
" id="CMR17-118"/>
       </defs>
       <use transform="scale(0.996264)" xlink:href="#CMR17-84"/>
       <use transform="translate(58.702625 0)scale(0.996264)" xlink:href="#CMR17-101"/>
       <use transform="translate(99.188286 0)scale(0.996264)" xlink:href="#CMR17-120"/>
       <use transform="translate(147.481201 0)scale(0.996264)" xlink:href="#CMR17-116"/>
       <use transform="translate(212.837936 0)scale(0.996264)" xlink:href="#CMR17-116"/>
       <use transform="translate(248.118703 0)scale(0.996264)" xlink:href="#CMR17-111"/>
       <use transform="translate(323.885147 0)scale(0.996264)" xlink:href="#CMR17-83"/>
       <use transform="translate(374.780517 0)scale(0.996264)" xlink:href="#CMR17-112"/>
       <use transform="translate(428.278325 0)scale(0.996264)" xlink:href="#CMR17-101"/>
       <use transform="translate(468.763986 0)scale(0.996264)" xlink:href="#CMR17-101"/>
       <use transform="translate(509.249646 0)scale(0.996264)" xlink:href="#CMR17-99"/>
       <use transform="translate(547.132853 0)scale(0.996264)" xlink:href="#CMR17-104"/>
       <use transform="translate(628.104189 0)scale(0.996264)" xlink:href="#CMR17-68"/>
       <use transform="translate(698.497745 0)scale(0.996264)" xlink:href="#CMR17-101"/>
       <use transform="translate(738.983405 0)scale(0.996264)" xlink:href="#CMR17-118"/>
       <use transform="translate(787.276321 0)scale(0.996264)" xlink:href="#CMR17-105"/>
       <use transform="translate(812.147379 0)scale(0.996264)" xlink:href="#CMR17-99"/>
       <use transform="translate(852.63304 0)scale(0.996264)" xlink:href="#CMR17-101"/>
       <use transform="translate(893.1187 0)scale(0.996264)" xlink:href="#CMR17-115"/>
      </g>
     </g>
    </g>
    <g id="xtick_3">
     <g id="line2d_3">
      <g>
       <use style="stroke:#000000;stroke-width:0.8;" x="159.424926" xlink:href="#m1f89bb92c9" y="309.50218"/>
      </g>
     </g>
     <g id="text_3">
      <!-- Breakout Corner -->
      <g transform="translate(132.667265 320.653285)scale(0.06 -0.06)">
       <defs>
        <path d="M 26.09375 26.234375 
C 26 26.4375 25.5 27.03125 25.5 27.328125 
C 25.5 27.53125 32.59375 33.984375 33.5 34.78125 
C 39.203125 39.5625 42.796875 40.046875 45.40625 40.15625 
L 45.40625 42.734375 
C 44.796875 42.734375 44.59375 42.734375 44.5 42.640625 
L 39.59375 42.53125 
C 36.796875 42.53125 32.5 42.53125 29.796875 42.734375 
L 29.796875 40.15625 
C 31.203125 40.046875 32.203125 39.265625 32.203125 37.859375 
C 32.203125 35.875 30.203125 33.984375 30.09375 33.984375 
L 15 20.28125 
L 15 69 
L 3.09375 67.890625 
L 3.09375 65.296875 
C 9 65.296875 9.90625 64.703125 9.90625 59.921875 
L 9.90625 6.859375 
C 9.90625 3.09375 9.5 2.59375 3.09375 2.59375 
L 3.09375 0 
C 5.5 0.1875 9.90625 0.1875 12.40625 0.1875 
C 14.90625 0.1875 19.296875 0.1875 21.703125 0 
L 21.703125 2.59375 
C 15.296875 2.59375 14.90625 2.984375 14.90625 6.859375 
L 14.90625 17.796875 
L 21.796875 24.0625 
L 31.90625 9.15625 
C 33.09375 7.359375 34.09375 5.96875 34.09375 4.671875 
C 34.09375 2.890625 32.296875 2.59375 31.09375 2.59375 
L 31.09375 0 
C 33.5 0.1875 37.796875 0.1875 40.296875 0.1875 
C 42.09375 0.1875 45.796875 0.09375 47.5 0 
L 47.5 2.59375 
C 42.796875 2.59375 41.703125 3.484375 38.703125 7.859375 
z
" id="CMR17-107"/>
        <path d="M 29.40625 42.890625 
L 29.40625 40.296875 
C 35.296875 40.296875 36.203125 39.6875 36.203125 34.828125 
L 36.203125 16.453125 
C 36.203125 7.96875 31.703125 0.59375 24.296875 0.59375 
C 16.09375 0.59375 15.40625 5.546875 15.40625 10.796875 
L 15.40625 44 
L 3.296875 42.890625 
L 3.296875 40.296875 
C 7.296875 40.296875 10 40.296875 10.09375 36.25 
L 10.09375 16.859375 
C 10.09375 10.09375 10.09375 5.75 12.703125 2.921875 
C 14 1.609375 16.5 -1 23.703125 -1 
C 32.203125 -1 35.5 6.25 36.296875 8.375 
L 36.40625 8.375 
L 36.40625 -1 
L 48.296875 -0.203125 
L 48.296875 2.40625 
C 42.40625 2.40625 41.5 3.015625 41.5 7.859375 
L 41.5 44 
z
" id="CMR17-117"/>
        <path d="M 62.09375 67.984375 
C 62.09375 69.796875 62 69.890625 61.40625 69.890625 
C 61 69.890625 60.90625 69.796875 60.203125 68.59375 
L 55.796875 60.140625 
C 50.90625 66.390625 44.90625 70 37.203125 70 
C 20.09375 70 4.59375 54.796875 4.59375 34.046875 
C 4.59375 13.078125 20.09375 -2 37.296875 -2 
C 52.59375 -2 62.09375 11.578125 62.09375 23.15625 
C 62.09375 24.171875 62.09375 24.578125 61.203125 24.578125 
C 60.40625 24.578125 60.40625 24.265625 60.296875 23.359375 
C 59.5 9.25 49.5 0.59375 38.703125 0.59375 
C 28.5 0.59375 12.203125 7.84375 12.203125 34.046875 
C 12.203125 60.34375 28.796875 67.390625 38.5 67.390625 
C 49.796875 67.390625 58 57.515625 59.90625 43.515625 
C 60.09375 42.296875 60.09375 42.109375 61 42.109375 
C 62.09375 42.109375 62.09375 42.296875 62.09375 44.125 
z
" id="CMR17-67"/>
       </defs>
       <use transform="scale(0.996264)" xlink:href="#CMR17-66"/>
       <use transform="translate(65.188754 0)scale(0.996264)" xlink:href="#CMR17-114"/>
       <use transform="translate(100.469522 0)scale(0.996264)" xlink:href="#CMR17-101"/>
       <use transform="translate(140.955183 0)scale(0.996264)" xlink:href="#CMR17-97"/>
       <use transform="translate(186.64566 0)scale(0.996264)" xlink:href="#CMR17-107"/>
       <use transform="translate(232.336122 0)scale(0.996264)" xlink:href="#CMR17-111"/>
       <use transform="translate(278.026599 0)scale(0.996264)" xlink:href="#CMR17-117"/>
       <use transform="translate(328.921969 0)scale(0.996264)" xlink:href="#CMR17-116"/>
       <use transform="translate(394.278703 0)scale(0.996264)" xlink:href="#CMR17-67"/>
       <use transform="translate(460.788583 0)scale(0.996264)" xlink:href="#CMR17-111"/>
       <use transform="translate(506.47906 0)scale(0.996264)" xlink:href="#CMR17-114"/>
       <use transform="translate(541.759828 0)scale(0.996264)" xlink:href="#CMR17-110"/>
       <use transform="translate(592.655198 0)scale(0.996264)" xlink:href="#CMR17-101"/>
       <use transform="translate(633.140858 0)scale(0.996264)" xlink:href="#CMR17-114"/>
      </g>
     </g>
    </g>
    <g id="xtick_4">
     <g id="line2d_4">
      <g>
       <use style="stroke:#000000;stroke-width:0.8;" x="195.788562" xlink:href="#m1f89bb92c9" y="309.50218"/>
      </g>
     </g>
     <g id="text_4">
      <!-- Use of Toy in Class -->
      <g transform="translate(164.630829 330.733285)scale(0.06 -0.06)">
       <defs>
        <path d="M 54 22.53125 
C 54 9.109375 45.296875 0.59375 35.796875 0.59375 
C 30.703125 0.59375 26.09375 3.296875 23.296875 7.5 
C 20.09375 12.3125 19.703125 18.515625 19.703125 22.03125 
L 19.703125 60.890625 
C 19.703125 65.390625 20.796875 65.390625 27.703125 65.390625 
L 27.703125 68 
C 24.796875 67.796875 19.5 67.796875 16.40625 67.796875 
C 13.296875 67.796875 8 67.796875 5.09375 68 
L 5.09375 65.390625 
C 12 65.390625 13.09375 65.390625 13.09375 60.890625 
L 13.09375 22.53125 
C 13.09375 8.109375 24 -2 35.59375 -2 
C 48.59375 -2 56.09375 11.3125 56.09375 21.125 
L 56.09375 59.1875 
C 56.09375 64.796875 61.203125 65.390625 64.09375 65.390625 
L 64.09375 68 
C 61.796875 67.796875 57.59375 67.796875 55.09375 67.796875 
C 52.59375 67.796875 48.296875 67.796875 46 68 
L 46 65.390625 
C 54 65.390625 54 60.6875 54 58.1875 
z
" id="CMR17-85"/>
        <path d="M 15.296875 40.390625 
L 26.703125 40.390625 
L 26.703125 43 
L 15.09375 43 
L 15.09375 55.296875 
C 15.09375 63.6875 19.296875 68.390625 23.59375 68.390625 
C 24.90625 68.390625 26.40625 68.171875 27.40625 67.796875 
C 26.59375 67.59375 24.5 66.890625 24.5 64.390625 
C 24.5 61.796875 26.5 61 27.90625 61 
C 29.296875 61 31.296875 61.796875 31.296875 64.390625 
C 31.296875 68.015625 27.703125 70 23.703125 70 
C 18 70 10.203125 65.796875 10.203125 55.09375 
L 10.203125 43 
L 2.203125 43 
L 2.203125 40.390625 
L 10.203125 40.390625 
L 10.203125 6.890625 
C 10.203125 3.09375 9.796875 2.59375 3.40625 2.59375 
L 3.40625 0 
C 5.796875 0.1875 10.40625 0.1875 13 0.1875 
C 15.90625 0.1875 21 0.1875 23.703125 0 
L 23.703125 2.59375 
C 16.5 2.59375 15.296875 2.59375 15.296875 7.09375 
z
" id="CMR17-102"/>
        <path d="M 39 34.109375 
C 41.5 40.296875 46 40.390625 47.40625 40.390625 
L 47.40625 43 
C 45.5 42.890625 43 42.796875 41.09375 42.796875 
C 39 42.796875 35.703125 42.796875 33.703125 43 
L 33.703125 40.390625 
C 37.5 40.09375 37.59375 37.25 37.59375 36.4375 
C 37.59375 35.4375 37.40625 34.921875 36.90625 33.71875 
L 26 6.390625 
L 14.09375 35.9375 
C 13.59375 37.15625 13.59375 37.859375 13.59375 37.96875 
C 13.59375 40.1875 15.90625 40.390625 18.296875 40.390625 
L 18.296875 43 
C 15.90625 42.796875 11.59375 42.796875 9.09375 42.796875 
C 6.40625 42.796875 3.203125 42.796875 1 43 
L 1 40.390625 
C 6.40625 40.390625 7 39.890625 8.296875 36.640625 
L 23.203125 -0.484375 
C 18.703125 -12.421875 16.09375 -19.40625 9.796875 -19.40625 
C 8.703125 -19.40625 6.203125 -19.109375 4.40625 -17.28125 
C 6.703125 -17.078125 7.703125 -15.65625 7.703125 -13.9375 
C 7.703125 -12.21875 6.5 -10.703125 4.5 -10.703125 
C 2.296875 -10.703125 1.203125 -12.21875 1.203125 -14.046875 
C 1.203125 -18.09375 5.296875 -21 9.796875 -21 
C 15.59375 -21 19.203125 -15.359375 21.203125 -10.296875 
z
" id="CMR17-121"/>
       </defs>
       <use transform="scale(0.996264)" xlink:href="#CMR17-85"/>
       <use transform="translate(69.07243 0)scale(0.996264)" xlink:href="#CMR17-115"/>
       <use transform="translate(104.873767 0)scale(0.996264)" xlink:href="#CMR17-101"/>
       <use transform="translate(175.435394 0)scale(0.996264)" xlink:href="#CMR17-111"/>
       <use transform="translate(221.125871 0)scale(0.996264)" xlink:href="#CMR17-102"/>
       <use transform="translate(278.67535 0)scale(0.996264)" xlink:href="#CMR17-84"/>
       <use transform="translate(337.377975 0)scale(0.996264)" xlink:href="#CMR17-111"/>
       <use transform="translate(380.465998 0)scale(0.996264)" xlink:href="#CMR17-121"/>
       <use transform="translate(458.834881 0)scale(0.996264)" xlink:href="#CMR17-105"/>
       <use transform="translate(483.705939 0)scale(0.996264)" xlink:href="#CMR17-110"/>
       <use transform="translate(564.677275 0)scale(0.996264)" xlink:href="#CMR17-67"/>
       <use transform="translate(631.187156 0)scale(0.996264)" xlink:href="#CMR17-108"/>
       <use transform="translate(656.058214 0)scale(0.996264)" xlink:href="#CMR17-97"/>
       <use transform="translate(701.748691 0)scale(0.996264)" xlink:href="#CMR17-115"/>
       <use transform="translate(737.550029 0)scale(0.996264)" xlink:href="#CMR17-115"/>
      </g>
     </g>
    </g>
    <g id="xtick_5">
     <g id="line2d_5">
      <g>
       <use style="stroke:#000000;stroke-width:0.8;" x="232.152198" xlink:href="#m1f89bb92c9" y="309.50218"/>
      </g>
     </g>
     <g id="text_5">
      <!-- Bigger Print Materials -->
      <g transform="translate(196.057474 320.653285)scale(0.06 -0.06)">
       <defs>
        <path d="M 11.09375 18.203125 
C 13 16.6875 16.296875 15 20.296875 15 
C 28.203125 15 35 21.234375 35 29.609375 
C 35 32.234375 34.203125 36.265625 31.203125 39.390625 
C 34 42.390625 38.09375 43.390625 40.40625 43.390625 
C 40.796875 43.390625 41.40625 43.390625 41.90625 43.09375 
C 41.5 42.984375 40.59375 42.59375 40.59375 40.984375 
C 40.59375 39.6875 41.5 38.796875 42.796875 38.796875 
C 44.296875 38.796875 45.09375 39.796875 45.09375 41.09375 
C 45.09375 42.984375 43.59375 45 40.40625 45 
C 36.40625 45 32.90625 43.09375 30.09375 40.484375 
C 27.09375 43.1875 23.5 44.1875 20.296875 44.1875 
C 12.40625 44.1875 5.59375 37.984375 5.59375 29.609375 
C 5.59375 23.859375 8.90625 20.21875 9.90625 19.21875 
C 6.90625 15.6875 6.90625 11.59375 6.90625 11.09375 
C 6.90625 8.5 7.90625 4.6875 11.296875 2.59375 
C 6.09375 1.28125 2 -2.875 2 -8.078125 
C 2 -15.5625 11.5 -21 22.90625 -21 
C 33.90625 -21 43.796875 -15.765625 43.796875 -7.96875 
C 43.796875 6 29 6 21.296875 6 
C 19 6 14.90625 6 14.40625 6.09375 
C 11.296875 6.59375 9.203125 9.390625 9.203125 12.890625 
C 9.203125 13.796875 9.203125 16 11.09375 18.203125 
z
M 20.296875 16.6875 
C 11.5 16.6875 11.5 27.59375 11.5 29.609375 
C 11.5 31.625 11.5 42.484375 20.296875 42.484375 
C 29.09375 42.484375 29.09375 31.625 29.09375 29.609375 
C 29.09375 27.59375 29.09375 16.6875 20.296875 16.6875 
z
M 22.90625 -19.3125 
C 12.90625 -19.3125 6 -13.796875 6 -8.078125 
C 6 -4.859375 7.703125 -1.84375 9.90625 -0.171875 
C 12.40625 1.59375 13.40625 1.59375 20.203125 1.59375 
C 28.40625 1.59375 39.796875 1.59375 39.796875 -8.078125 
C 39.796875 -13.796875 32.90625 -19.3125 22.90625 -19.3125 
z
" id="CMR17-103"/>
        <path d="M 19.796875 32 
L 35.796875 32 
C 48.703125 32 58.09375 40.359375 58.09375 49.796875 
C 58.09375 59.234375 48.90625 68 35.796875 68 
L 5.203125 68 
L 5.203125 65.390625 
C 12.09375 65.390625 13.203125 65.390625 13.203125 60.921875 
L 13.203125 7.078125 
C 13.203125 2.59375 12.09375 2.59375 5.203125 2.59375 
L 5.203125 0 
C 8.09375 0.1875 13.40625 0.1875 16.5 0.1875 
C 19.59375 0.1875 24.90625 0.1875 27.796875 0 
L 27.796875 2.59375 
C 20.90625 2.59375 19.796875 2.59375 19.796875 7.078125 
z
M 19.59375 34.09375 
L 19.59375 61.515625 
C 19.59375 64.890625 19.796875 65.390625 23.796875 65.390625 
L 33.90625 65.390625 
C 46.796875 65.390625 50.5 58.046875 50.5 49.796875 
C 50.5 40.75 46.09375 34.09375 33.90625 34.09375 
z
" id="CMR17-80"/>
       </defs>
       <use transform="scale(0.996264)" xlink:href="#CMR17-66"/>
       <use transform="translate(65.188754 0)scale(0.996264)" xlink:href="#CMR17-105"/>
       <use transform="translate(90.059813 0)scale(0.996264)" xlink:href="#CMR17-103"/>
       <use transform="translate(135.75029 0)scale(0.996264)" xlink:href="#CMR17-103"/>
       <use transform="translate(181.440767 0)scale(0.996264)" xlink:href="#CMR17-101"/>
       <use transform="translate(221.926428 0)scale(0.996264)" xlink:href="#CMR17-114"/>
       <use transform="translate(287.283162 0)scale(0.996264)" xlink:href="#CMR17-80"/>
       <use transform="translate(349.869462 0)scale(0.996264)" xlink:href="#CMR17-114"/>
       <use transform="translate(385.15023 0)scale(0.996264)" xlink:href="#CMR17-105"/>
       <use transform="translate(410.021289 0)scale(0.996264)" xlink:href="#CMR17-110"/>
       <use transform="translate(458.314204 0)scale(0.996264)" xlink:href="#CMR17-116"/>
       <use transform="translate(523.670939 0)scale(0.996264)" xlink:href="#CMR17-77"/>
       <use transform="translate(608.357879 0)scale(0.996264)" xlink:href="#CMR17-97"/>
       <use transform="translate(654.048356 0)scale(0.996264)" xlink:href="#CMR17-116"/>
       <use transform="translate(689.329124 0)scale(0.996264)" xlink:href="#CMR17-101"/>
       <use transform="translate(729.814785 0)scale(0.996264)" xlink:href="#CMR17-114"/>
       <use transform="translate(765.095552 0)scale(0.996264)" xlink:href="#CMR17-105"/>
       <use transform="translate(789.966611 0)scale(0.996264)" xlink:href="#CMR17-97"/>
       <use transform="translate(835.657088 0)scale(0.996264)" xlink:href="#CMR17-108"/>
       <use transform="translate(860.528146 0)scale(0.996264)" xlink:href="#CMR17-115"/>
      </g>
     </g>
    </g>
    <g id="xtick_6">
     <g id="line2d_6">
      <g>
       <use style="stroke:#000000;stroke-width:0.8;" x="268.515835" xlink:href="#m1f89bb92c9" y="309.50218"/>
      </g>
     </g>
     <g id="text_6">
      <!-- Isolated Workstation -->
      <g transform="translate(235.086097 330.733285)scale(0.06 -0.06)">
       <defs>
        <path d="M 19.703125 60.90625 
C 19.703125 65.390625 20.90625 65.390625 28.09375 65.390625 
L 28.09375 68 
C 24.90625 67.796875 19.796875 67.796875 16.40625 67.796875 
C 13 67.796875 7.90625 67.796875 4.703125 68 
L 4.703125 65.390625 
C 11.90625 65.390625 13.09375 65.390625 13.09375 60.90625 
L 13.09375 7.078125 
C 13.09375 2.59375 11.90625 2.59375 4.703125 2.59375 
L 4.703125 0 
C 7.90625 0.1875 13 0.1875 16.40625 0.1875 
C 19.796875 0.1875 24.90625 0.1875 28.09375 0 
L 28.09375 2.59375 
C 20.90625 2.59375 19.703125 2.59375 19.703125 7.078125 
z
" id="CMR17-73"/>
        <path d="M 29.203125 67.890625 
L 29.203125 65.296875 
C 35.09375 65.296875 36 64.703125 36 60.046875 
L 36 37.046875 
C 35.59375 37.546875 31.5 44 23.40625 44 
C 13.203125 44 3.296875 34.8125 3.296875 21.5 
C 3.296875 8.265625 12.59375 -1 22.40625 -1 
C 30.90625 -1 35.296875 5.640625 35.796875 6.34375 
L 35.796875 -1 
L 47.90625 -0.203125 
L 47.90625 2.40625 
C 42 2.40625 41.09375 3.015625 41.09375 7.859375 
L 41.09375 69 
z
M 35.796875 11.90625 
C 35.796875 8.875 34 6.140625 31.703125 4.125 
C 28.296875 1.09375 24.90625 0.59375 23 0.59375 
C 20.09375 0.59375 9.703125 2.109375 9.703125 21.390625 
C 9.703125 41.1875 21.296875 42.390625 23.90625 42.390625 
C 28.5 42.390625 32.203125 39.765625 34.5 36.140625 
C 35.796875 34.015625 35.796875 33.703125 35.796875 31.890625 
z
" id="CMR17-100"/>
        <path d="M 86.296875 58.984375 
C 87.203125 61.6875 88.703125 65.203125 94.5 65.390625 
L 94.5 68 
C 92.796875 67.890625 89.296875 67.796875 87.5 67.796875 
C 85 67.796875 80.59375 67.796875 78.203125 68 
L 78.203125 65.390625 
C 82.703125 65.296875 84.59375 62.796875 84.59375 60.390625 
C 84.59375 59.6875 84.5 59.28125 84.09375 58.1875 
L 68.59375 8.703125 
L 52.296875 60.78125 
C 52 61.796875 51.90625 62.1875 51.90625 62.59375 
C 51.90625 65.390625 56.296875 65.390625 58.203125 65.390625 
L 58.203125 68 
C 55.296875 67.796875 50.296875 67.796875 47.203125 67.796875 
C 44.703125 67.796875 40.203125 67.796875 37.90625 68 
L 37.90625 65.390625 
C 42.5 65.390625 43.703125 65.09375 44.703125 63.296875 
C 45.09375 62.390625 46.703125 57.1875 46.703125 56.875 
C 46.703125 56.484375 46.5 55.875 46.40625 55.578125 
L 31.703125 8.8125 
L 15.40625 60.78125 
C 14.90625 62.1875 14.90625 62.390625 14.90625 62.59375 
C 14.90625 65.390625 19.296875 65.390625 21.296875 65.390625 
L 21.296875 68 
C 18.40625 67.796875 13.40625 67.796875 10.296875 67.796875 
C 7.703125 67.796875 3.296875 67.796875 0.90625 68 
L 0.90625 65.390625 
C 6.90625 65.390625 7.296875 64.796875 8.296875 61.59375 
L 27.796875 -0.3125 
C 28.296875 -1.8125 28.296875 -2 29.203125 -2 
C 30 -2 30.296875 -1.8125 30.703125 -0.40625 
L 47.703125 53.875 
L 64.703125 -0.40625 
C 65.09375 -1.8125 65.40625 -2 66.203125 -2 
C 67.09375 -2 67.09375 -1.8125 67.59375 -0.3125 
z
" id="CMR17-87"/>
       </defs>
       <use transform="scale(0.996264)" xlink:href="#CMR17-73"/>
       <use transform="translate(32.638409 0)scale(0.996264)" xlink:href="#CMR17-115"/>
       <use transform="translate(68.439747 0)scale(0.996264)" xlink:href="#CMR17-111"/>
       <use transform="translate(114.130224 0)scale(0.996264)" xlink:href="#CMR17-108"/>
       <use transform="translate(139.001282 0)scale(0.996264)" xlink:href="#CMR17-97"/>
       <use transform="translate(184.69176 0)scale(0.996264)" xlink:href="#CMR17-116"/>
       <use transform="translate(219.972527 0)scale(0.996264)" xlink:href="#CMR17-101"/>
       <use transform="translate(260.458188 0)scale(0.996264)" xlink:href="#CMR17-100"/>
       <use transform="translate(341.429524 0)scale(0.996264)" xlink:href="#CMR17-87"/>
       <use transform="translate(428.718918 0)scale(0.996264)" xlink:href="#CMR17-111"/>
       <use transform="translate(474.409396 0)scale(0.996264)" xlink:href="#CMR17-114"/>
       <use transform="translate(509.690163 0)scale(0.996264)" xlink:href="#CMR17-107"/>
       <use transform="translate(557.983079 0)scale(0.996264)" xlink:href="#CMR17-115"/>
       <use transform="translate(593.784417 0)scale(0.996264)" xlink:href="#CMR17-116"/>
       <use transform="translate(629.065185 0)scale(0.996264)" xlink:href="#CMR17-97"/>
       <use transform="translate(674.755662 0)scale(0.996264)" xlink:href="#CMR17-116"/>
       <use transform="translate(710.03643 0)scale(0.996264)" xlink:href="#CMR17-105"/>
       <use transform="translate(734.907488 0)scale(0.996264)" xlink:href="#CMR17-111"/>
       <use transform="translate(780.597965 0)scale(0.996264)" xlink:href="#CMR17-110"/>
      </g>
     </g>
    </g>
    <g id="xtick_7">
     <g id="line2d_7">
      <g>
       <use style="stroke:#000000;stroke-width:0.8;" x="304.879471" xlink:href="#m1f89bb92c9" y="309.50218"/>
      </g>
     </g>
     <g id="text_7">
      <!-- Tutoring Sessions -->
      <g transform="translate(276.774119 320.653285)scale(0.06 -0.06)">
       <use transform="scale(0.996264)" xlink:href="#CMR17-84"/>
       <use transform="translate(58.702625 0)scale(0.996264)" xlink:href="#CMR17-117"/>
       <use transform="translate(109.597995 0)scale(0.996264)" xlink:href="#CMR17-116"/>
       <use transform="translate(144.878763 0)scale(0.996264)" xlink:href="#CMR17-111"/>
       <use transform="translate(190.56924 0)scale(0.996264)" xlink:href="#CMR17-114"/>
       <use transform="translate(225.850008 0)scale(0.996264)" xlink:href="#CMR17-105"/>
       <use transform="translate(250.721066 0)scale(0.996264)" xlink:href="#CMR17-110"/>
       <use transform="translate(301.616436 0)scale(0.996264)" xlink:href="#CMR17-103"/>
       <use transform="translate(377.382879 0)scale(0.996264)" xlink:href="#CMR17-83"/>
       <use transform="translate(428.278249 0)scale(0.996264)" xlink:href="#CMR17-101"/>
       <use transform="translate(468.76391 0)scale(0.996264)" xlink:href="#CMR17-115"/>
       <use transform="translate(504.565247 0)scale(0.996264)" xlink:href="#CMR17-115"/>
       <use transform="translate(540.366585 0)scale(0.996264)" xlink:href="#CMR17-105"/>
       <use transform="translate(565.237643 0)scale(0.996264)" xlink:href="#CMR17-111"/>
       <use transform="translate(610.928121 0)scale(0.996264)" xlink:href="#CMR17-110"/>
       <use transform="translate(661.82349 0)scale(0.996264)" xlink:href="#CMR17-115"/>
      </g>
     </g>
    </g>
    <g id="xtick_8">
     <g id="line2d_8">
      <g>
       <use style="stroke:#000000;stroke-width:0.8;" x="341.243107" xlink:href="#m1f89bb92c9" y="309.50218"/>
      </g>
     </g>
     <g id="text_8">
      <!-- Book Buddy -->
      <g transform="translate(321.254428 330.733285)scale(0.06 -0.06)">
       <use transform="scale(0.996264)" xlink:href="#CMR17-66"/>
       <use transform="translate(65.188754 0)scale(0.996264)" xlink:href="#CMR17-111"/>
       <use transform="translate(113.48167 0)scale(0.996264)" xlink:href="#CMR17-111"/>
       <use transform="translate(159.172147 0)scale(0.996264)" xlink:href="#CMR17-107"/>
       <use transform="translate(237.54103 0)scale(0.996264)" xlink:href="#CMR17-66"/>
       <use transform="translate(302.729784 0)scale(0.996264)" xlink:href="#CMR17-117"/>
       <use transform="translate(353.625154 0)scale(0.996264)" xlink:href="#CMR17-100"/>
       <use transform="translate(404.520524 0)scale(0.996264)" xlink:href="#CMR17-100"/>
       <use transform="translate(455.415893 0)scale(0.996264)" xlink:href="#CMR17-121"/>
      </g>
     </g>
    </g>
    <g id="xtick_9">
     <g id="line2d_9">
      <g>
       <use style="stroke:#000000;stroke-width:0.8;" x="377.606744" xlink:href="#m1f89bb92c9" y="309.50218"/>
      </g>
     </g>
     <g id="text_9">
      <!-- Use of Calculator on Tests -->
      <g transform="translate(335.019794 320.653285)scale(0.06 -0.06)">
       <use transform="scale(0.996264)" xlink:href="#CMR17-85"/>
       <use transform="translate(69.07243 0)scale(0.996264)" xlink:href="#CMR17-115"/>
       <use transform="translate(104.873767 0)scale(0.996264)" xlink:href="#CMR17-101"/>
       <use transform="translate(175.435394 0)scale(0.996264)" xlink:href="#CMR17-111"/>
       <use transform="translate(221.125871 0)scale(0.996264)" xlink:href="#CMR17-102"/>
       <use transform="translate(278.67535 0)scale(0.996264)" xlink:href="#CMR17-67"/>
       <use transform="translate(345.185231 0)scale(0.996264)" xlink:href="#CMR17-97"/>
       <use transform="translate(390.875708 0)scale(0.996264)" xlink:href="#CMR17-108"/>
       <use transform="translate(415.746766 0)scale(0.996264)" xlink:href="#CMR17-99"/>
       <use transform="translate(456.232427 0)scale(0.996264)" xlink:href="#CMR17-117"/>
       <use transform="translate(507.127797 0)scale(0.996264)" xlink:href="#CMR17-108"/>
       <use transform="translate(531.998855 0)scale(0.996264)" xlink:href="#CMR17-97"/>
       <use transform="translate(577.689332 0)scale(0.996264)" xlink:href="#CMR17-116"/>
       <use transform="translate(612.9701 0)scale(0.996264)" xlink:href="#CMR17-111"/>
       <use transform="translate(658.660577 0)scale(0.996264)" xlink:href="#CMR17-114"/>
       <use transform="translate(724.017311 0)scale(0.996264)" xlink:href="#CMR17-111"/>
       <use transform="translate(769.707788 0)scale(0.996264)" xlink:href="#CMR17-110"/>
       <use transform="translate(850.679124 0)scale(0.996264)" xlink:href="#CMR17-84"/>
       <use transform="translate(909.38175 0)scale(0.996264)" xlink:href="#CMR17-101"/>
       <use transform="translate(949.86741 0)scale(0.996264)" xlink:href="#CMR17-115"/>
       <use transform="translate(985.668748 0)scale(0.996264)" xlink:href="#CMR17-116"/>
       <use transform="translate(1020.949515 0)scale(0.996264)" xlink:href="#CMR17-115"/>
      </g>
     </g>
    </g>
    <g id="xtick_10">
     <g id="line2d_10">
      <g>
       <use style="stroke:#000000;stroke-width:0.8;" x="413.97038" xlink:href="#m1f89bb92c9" y="309.50218"/>
      </g>
     </g>
     <g id="text_10">
      <!-- AAC Devices -->
      <g transform="translate(392.794495 330.733285)scale(0.06 -0.06)">
       <defs>
        <path d="M 36.296875 69.390625 
C 35.796875 70.6875 35.59375 71 34.59375 71 
C 33.59375 71 33.40625 70.6875 32.90625 69.390625 
L 11.703125 9.0625 
C 9.796875 3.6875 5.796875 2.59375 2.296875 2.59375 
L 2.296875 0 
C 4.09375 0.1875 8.09375 0.1875 10 0.1875 
C 12.5 0.1875 16.5 0.1875 18.90625 0 
L 18.90625 2.59375 
C 14.203125 2.796875 13.5 5.96875 13.5 7.171875 
C 13.5 8.0625 13.703125 8.5625 13.90625 9.15625 
L 19.203125 24 
L 45.40625 24 
L 51.40625 7.078125 
C 51.90625 5.875 51.90625 5.671875 51.90625 5.28125 
C 51.90625 2.59375 47.59375 2.59375 45.703125 2.59375 
L 45.703125 0 
C 48.59375 0.1875 53.796875 0.1875 56.90625 0.1875 
C 59.5 0.1875 64.5 0.1875 66.90625 0 
L 66.90625 2.59375 
C 61.59375 2.59375 59.796875 2.59375 58.5 6.28125 
z
M 32.296875 61.3125 
L 44.5 26.59375 
L 20.09375 26.59375 
z
" id="CMR17-65"/>
       </defs>
       <use transform="scale(0.996264)" xlink:href="#CMR17-65"/>
       <use transform="translate(69.07243 0)scale(0.996264)" xlink:href="#CMR17-65"/>
       <use transform="translate(135.542406 0)scale(0.996264)" xlink:href="#CMR17-67"/>
       <use transform="translate(232.128253 0)scale(0.996264)" xlink:href="#CMR17-68"/>
       <use transform="translate(302.521808 0)scale(0.996264)" xlink:href="#CMR17-101"/>
       <use transform="translate(343.007469 0)scale(0.996264)" xlink:href="#CMR17-118"/>
       <use transform="translate(391.300385 0)scale(0.996264)" xlink:href="#CMR17-105"/>
       <use transform="translate(416.171443 0)scale(0.996264)" xlink:href="#CMR17-99"/>
       <use transform="translate(456.657104 0)scale(0.996264)" xlink:href="#CMR17-101"/>
       <use transform="translate(497.142764 0)scale(0.996264)" xlink:href="#CMR17-115"/>
      </g>
     </g>
    </g>
    <g id="xtick_11">
     <g id="line2d_11">
      <g>
       <use style="stroke:#000000;stroke-width:0.8;" x="450.334016" xlink:href="#m1f89bb92c9" y="309.50218"/>
      </g>
     </g>
     <g id="text_11">
      <!-- Special Education Classroom -->
      <g transform="translate(403.654139 320.653285)scale(0.06 -0.06)">
       <defs>
        <path d="M 60.703125 25.21875 
L 58.90625 25.21875 
C 56.703125 10.5625 55.40625 2.59375 37.796875 2.59375 
L 23.90625 2.59375 
C 19.90625 2.59375 19.703125 3.09375 19.703125 6.484375 
L 19.703125 34 
L 29.09375 34 
C 38.5 34 39.40625 30.609375 39.40625 22.328125 
L 41.203125 22.328125 
L 41.203125 48.21875 
L 39.40625 48.21875 
C 39.40625 39.96875 38.5 36.59375 29.09375 36.59375 
L 19.703125 36.59375 
L 19.703125 61.3125 
C 19.703125 64.703125 19.90625 65.1875 23.90625 65.1875 
L 37.59375 65.1875 
C 53.09375 65.1875 54.90625 59.03125 56.296875 45.828125 
L 58.09375 45.828125 
L 55.703125 67.796875 
L 5.09375 67.796875 
L 5.09375 65.1875 
C 12 65.1875 13.09375 65.1875 13.09375 60.71875 
L 13.09375 7.078125 
C 13.09375 2.59375 12 2.59375 5.09375 2.59375 
L 5.09375 0 
L 57.09375 0 
z
" id="CMR17-69"/>
        <path d="M 67.59375 30.53125 
C 67.59375 35.5625 66.703125 44 54.796875 44 
C 48 44 43.296875 39.375 41.5 33.953125 
L 41.40625 33.953125 
C 40.203125 42.1875 34.296875 44 28.703125 44 
C 20.796875 44 16.703125 37.875 15.203125 33.84375 
L 15.09375 33.84375 
L 15.09375 44 
L 3.296875 42.890625 
L 3.296875 40.28125 
C 9.203125 40.28125 10.09375 39.6875 10.09375 34.859375 
L 10.09375 6.921875 
C 10.09375 3.09375 9.703125 2.59375 3.296875 2.59375 
L 3.296875 0 
C 5.703125 0.1875 10.09375 0.1875 12.703125 0.1875 
C 15.296875 0.1875 19.796875 0.1875 22.203125 0 
L 22.203125 2.59375 
C 15.796875 2.59375 15.40625 3 15.40625 6.921875 
L 15.40625 26.21875 
C 15.40625 35.453125 21 42.390625 28 42.390625 
C 35.40625 42.390625 36.203125 35.765625 36.203125 30.9375 
L 36.203125 6.921875 
C 36.203125 3.09375 35.796875 2.59375 29.40625 2.59375 
L 29.40625 0 
C 31.796875 0.1875 36.203125 0.1875 38.796875 0.1875 
C 41.40625 0.1875 45.90625 0.1875 48.296875 0 
L 48.296875 2.59375 
C 41.90625 2.59375 41.5 3 41.5 6.921875 
L 41.5 26.21875 
C 41.5 35.453125 47.09375 42.390625 54.09375 42.390625 
C 61.5 42.390625 62.296875 35.765625 62.296875 30.9375 
L 62.296875 6.921875 
C 62.296875 3.09375 61.90625 2.59375 55.5 2.59375 
L 55.5 0 
C 57.90625 0.1875 62.296875 0.1875 64.90625 0.1875 
C 67.5 0.1875 72 0.1875 74.40625 0 
L 74.40625 2.59375 
C 68 2.59375 67.59375 3 67.59375 6.921875 
z
" id="CMR17-109"/>
       </defs>
       <use transform="scale(0.996264)" xlink:href="#CMR17-83"/>
       <use transform="translate(50.89537 0)scale(0.996264)" xlink:href="#CMR17-112"/>
       <use transform="translate(104.393178 0)scale(0.996264)" xlink:href="#CMR17-101"/>
       <use transform="translate(144.878839 0)scale(0.996264)" xlink:href="#CMR17-99"/>
       <use transform="translate(185.364499 0)scale(0.996264)" xlink:href="#CMR17-105"/>
       <use transform="translate(210.235558 0)scale(0.996264)" xlink:href="#CMR17-97"/>
       <use transform="translate(255.926035 0)scale(0.996264)" xlink:href="#CMR17-108"/>
       <use transform="translate(310.87306 0)scale(0.996264)" xlink:href="#CMR17-69"/>
       <use transform="translate(373.45936 0)scale(0.996264)" xlink:href="#CMR17-100"/>
       <use transform="translate(424.35473 0)scale(0.996264)" xlink:href="#CMR17-117"/>
       <use transform="translate(475.2501 0)scale(0.996264)" xlink:href="#CMR17-99"/>
       <use transform="translate(515.73576 0)scale(0.996264)" xlink:href="#CMR17-97"/>
       <use transform="translate(561.426237 0)scale(0.996264)" xlink:href="#CMR17-116"/>
       <use transform="translate(596.707005 0)scale(0.996264)" xlink:href="#CMR17-105"/>
       <use transform="translate(621.578064 0)scale(0.996264)" xlink:href="#CMR17-111"/>
       <use transform="translate(667.268541 0)scale(0.996264)" xlink:href="#CMR17-110"/>
       <use transform="translate(748.239877 0)scale(0.996264)" xlink:href="#CMR17-67"/>
       <use transform="translate(814.749757 0)scale(0.996264)" xlink:href="#CMR17-108"/>
       <use transform="translate(839.620816 0)scale(0.996264)" xlink:href="#CMR17-97"/>
       <use transform="translate(885.311293 0)scale(0.996264)" xlink:href="#CMR17-115"/>
       <use transform="translate(921.112631 0)scale(0.996264)" xlink:href="#CMR17-115"/>
       <use transform="translate(956.913968 0)scale(0.996264)" xlink:href="#CMR17-114"/>
       <use transform="translate(992.194736 0)scale(0.996264)" xlink:href="#CMR17-111"/>
       <use transform="translate(1040.487652 0)scale(0.996264)" xlink:href="#CMR17-111"/>
       <use transform="translate(1086.178129 0)scale(0.996264)" xlink:href="#CMR17-109"/>
      </g>
     </g>
    </g>
    <g id="text_12">
     <!-- Accomodations -->
     <g transform="translate(235.279281 342.814096)scale(0.1 -0.1)">
      <use transform="scale(0.996264)" xlink:href="#CMR17-65"/>
      <use transform="translate(69.07243 0)scale(0.996264)" xlink:href="#CMR17-99"/>
      <use transform="translate(109.55809 0)scale(0.996264)" xlink:href="#CMR17-99"/>
      <use transform="translate(150.043751 0)scale(0.996264)" xlink:href="#CMR17-111"/>
      <use transform="translate(195.734228 0)scale(0.996264)" xlink:href="#CMR17-109"/>
      <use transform="translate(272.653818 0)scale(0.996264)" xlink:href="#CMR17-111"/>
      <use transform="translate(320.946734 0)scale(0.996264)" xlink:href="#CMR17-100"/>
      <use transform="translate(371.842103 0)scale(0.996264)" xlink:href="#CMR17-97"/>
      <use transform="translate(417.53258 0)scale(0.996264)" xlink:href="#CMR17-116"/>
      <use transform="translate(452.813348 0)scale(0.996264)" xlink:href="#CMR17-105"/>
      <use transform="translate(477.684407 0)scale(0.996264)" xlink:href="#CMR17-111"/>
      <use transform="translate(523.374884 0)scale(0.996264)" xlink:href="#CMR17-110"/>
      <use transform="translate(574.270254 0)scale(0.996264)" xlink:href="#CMR17-115"/>
     </g>
    </g>
   </g>
   <g id="matplotlib.axis_2">
    <g id="ytick_1">
     <g id="line2d_12">
      <defs>
       <path d="M 0 0 
L -3.5 0 
" id="m4d5f831ced" style="stroke:#000000;stroke-width:0.8;"/>
      </defs>
      <g>
       <use style="stroke:#000000;stroke-width:0.8;" x="52.515835" xlink:href="#m4d5f831ced" y="305.801208"/>
      </g>
     </g>
     <g id="text_13">
      <!-- $\mathdefault{0.25}$ -->
      <g transform="translate(20.055677 309.260458)scale(0.1 -0.1)">
       <defs>
        <path d="M 65.90625 23 
C 67.59375 23 69.40625 23 69.40625 25 
C 69.40625 27 67.59375 27 65.90625 27 
L 11.796875 27 
C 10.09375 27 8.296875 27 8.296875 25 
C 8.296875 23 10.09375 23 11.796875 23 
z
" id="CMSY10-0"/>
        <path d="M 42 31.84375 
C 42 37.96875 41.90625 48.421875 37.703125 56.453125 
C 34 63.484375 28.09375 66 22.90625 66 
C 18.09375 66 12 63.78125 8.203125 56.5625 
C 4.203125 49.015625 3.796875 39.671875 3.796875 31.84375 
C 3.796875 26.109375 3.90625 17.375 7 9.734375 
C 11.296875 -0.609375 19 -2 22.90625 -2 
C 27.5 -2 34.5 -0.109375 38.59375 9.4375 
C 41.59375 16.375 42 24.5 42 31.84375 
z
M 22.90625 -0.40625 
C 16.5 -0.40625 12.703125 5.125 11.296875 12.75 
C 10.203125 18.6875 10.203125 27.328125 10.203125 32.953125 
C 10.203125 40.6875 10.203125 47.109375 11.5 53.234375 
C 13.40625 61.78125 19 64.390625 22.90625 64.390625 
C 27 64.390625 32.296875 61.671875 34.203125 53.4375 
C 35.5 47.71875 35.59375 40.984375 35.59375 32.953125 
C 35.59375 26.421875 35.59375 18.375 34.40625 12.453125 
C 32.296875 1.5 26.40625 -0.40625 22.90625 -0.40625 
z
" id="CMR17-48"/>
        <path d="M 18.40625 4.796875 
C 18.40625 7.6875 16 9.6875 13.59375 9.6875 
C 10.703125 9.6875 8.703125 7.296875 8.703125 4.890625 
C 8.703125 2 11.09375 0 13.5 0 
C 16.40625 0 18.40625 2.390625 18.40625 4.796875 
z
" id="CMMI12-58"/>
        <path d="M 41.703125 15.46875 
L 39.90625 15.46875 
C 38.90625 8.390625 38.09375 7.1875 37.703125 6.59375 
C 37.203125 5.796875 30 5.796875 28.59375 5.796875 
L 9.40625 5.796875 
C 13 9.6875 20 16.765625 28.5 24.9375 
C 34.59375 30.71875 41.703125 37.5 41.703125 47.390625 
C 41.703125 59.1875 32.296875 66 21.796875 66 
C 10.796875 66 4.09375 56.296875 4.09375 47.296875 
C 4.09375 43.390625 7 42.890625 8.203125 42.890625 
C 9.203125 42.890625 12.203125 43.484375 12.203125 46.984375 
C 12.203125 50.09375 9.59375 51 8.203125 51 
C 7.59375 51 7 50.890625 6.59375 50.6875 
C 8.5 59.1875 14.296875 63.390625 20.40625 63.390625 
C 29.09375 63.390625 34.796875 56.5 34.796875 47.390625 
C 34.796875 38.703125 29.703125 31.21875 24 24.734375 
L 4.09375 2.296875 
L 4.09375 0 
L 39.296875 0 
z
" id="CMR17-50"/>
        <path d="M 11.40625 58.59375 
C 12.40625 58.1875 16.5 56.890625 20.703125 56.890625 
C 30 56.890625 35.09375 61.890625 38 64.6875 
C 38 65.484375 38 66 37.40625 66 
C 37.296875 66 37.09375 66 36.296875 65.59375 
C 32.796875 64.09375 28.703125 63 23.703125 63 
C 20.703125 63 16.203125 63.359375 11.296875 65.484375 
C 10.203125 66 10 66 9.90625 66 
C 9.40625 66 9.296875 65.890625 9.296875 63.90625 
L 9.296875 34.859375 
C 9.296875 33.015625 9.296875 32.5 10.296875 32.5 
C 10.796875 32.5 11 32.703125 11.5 33.421875 
C 14.703125 38.046875 19.09375 40 24.09375 40 
C 27.59375 40 35.09375 37.734375 35.09375 20.203125 
C 35.09375 16.984375 35.09375 11.1875 32.09375 6.59375 
C 29.59375 2.484375 25.703125 0.390625 21.40625 0.390625 
C 14.796875 0.390625 8.09375 4.984375 6.296875 12.6875 
C 6.703125 12.59375 7.5 12.390625 7.90625 12.390625 
C 9.203125 12.390625 11.703125 13.09375 11.703125 16.1875 
C 11.703125 18.890625 9.796875 20 7.90625 20 
C 5.59375 20 4.09375 18.59375 4.09375 15.796875 
C 4.09375 7.09375 11 -2 21.59375 -2 
C 31.90625 -2 41.703125 6.890625 41.703125 19.796875 
C 41.703125 32.09375 33.90625 41.59375 24.203125 41.59375 
C 19.09375 41.59375 14.796875 39.6875 11.40625 36 
z
" id="CMR17-53"/>
       </defs>
       <use transform="scale(0.996264)" xlink:href="#CMSY10-0"/>
       <use transform="translate(77.487468 0)scale(0.996264)" xlink:href="#CMR17-48"/>
       <use transform="translate(123.177945 0)scale(0.996264)" xlink:href="#CMMI12-58"/>
       <use transform="translate(150.275122 0)scale(0.996264)" xlink:href="#CMR17-50"/>
       <use transform="translate(195.965599 0)scale(0.996264)" xlink:href="#CMR17-53"/>
      </g>
     </g>
    </g>
    <g id="ytick_2">
     <g id="line2d_13">
      <g>
       <use style="stroke:#000000;stroke-width:0.8;" x="52.515835" xlink:href="#m4d5f831ced" y="268.187606"/>
      </g>
     </g>
     <g id="text_14">
      <!-- $\mathdefault{0.00}$ -->
      <g transform="translate(27.80442 271.646855)scale(0.1 -0.1)">
       <use transform="scale(0.996264)" xlink:href="#CMR17-48"/>
       <use transform="translate(45.690477 0)scale(0.996264)" xlink:href="#CMMI12-58"/>
       <use transform="translate(72.787654 0)scale(0.996264)" xlink:href="#CMR17-48"/>
       <use transform="translate(118.478131 0)scale(0.996264)" xlink:href="#CMR17-48"/>
      </g>
     </g>
    </g>
    <g id="ytick_3">
     <g id="line2d_14">
      <g>
       <use style="stroke:#000000;stroke-width:0.8;" x="52.515835" xlink:href="#m4d5f831ced" y="230.574003"/>
      </g>
     </g>
     <g id="text_15">
      <!-- $\mathdefault{0.25}$ -->
      <g transform="translate(27.80442 234.033253)scale(0.1 -0.1)">
       <use transform="scale(0.996264)" xlink:href="#CMR17-48"/>
       <use transform="translate(45.690477 0)scale(0.996264)" xlink:href="#CMMI12-58"/>
       <use transform="translate(72.787654 0)scale(0.996264)" xlink:href="#CMR17-50"/>
       <use transform="translate(118.478131 0)scale(0.996264)" xlink:href="#CMR17-53"/>
      </g>
     </g>
    </g>
    <g id="ytick_4">
     <g id="line2d_15">
      <g>
       <use style="stroke:#000000;stroke-width:0.8;" x="52.515835" xlink:href="#m4d5f831ced" y="192.960401"/>
      </g>
     </g>
     <g id="text_16">
      <!-- $\mathdefault{0.50}$ -->
      <g transform="translate(27.80442 196.41965)scale(0.1 -0.1)">
       <use transform="scale(0.996264)" xlink:href="#CMR17-48"/>
       <use transform="translate(45.690477 0)scale(0.996264)" xlink:href="#CMMI12-58"/>
       <use transform="translate(72.787654 0)scale(0.996264)" xlink:href="#CMR17-53"/>
       <use transform="translate(118.478131 0)scale(0.996264)" xlink:href="#CMR17-48"/>
      </g>
     </g>
    </g>
    <g id="ytick_5">
     <g id="line2d_16">
      <g>
       <use style="stroke:#000000;stroke-width:0.8;" x="52.515835" xlink:href="#m4d5f831ced" y="155.346798"/>
      </g>
     </g>
     <g id="text_17">
      <!-- $\mathdefault{0.75}$ -->
      <g transform="translate(27.80442 158.806047)scale(0.1 -0.1)">
       <defs>
        <path d="M 45.09375 61.796875 
L 45.09375 64 
L 21.59375 64 
C 9.90625 64 9.703125 65.09375 9.296875 67 
L 7.5 67 
L 4.59375 48.5 
L 6.40625 48.5 
C 6.703125 50.40625 7.40625 55.5 8.59375 57.390625 
C 9.203125 58.1875 16.59375 58.1875 18.296875 58.1875 
L 40.296875 58.1875 
L 29.203125 41.71875 
C 21.796875 30.640625 16.703125 15.671875 16.703125 2.59375 
C 16.703125 1.390625 16.703125 -2 20.296875 -2 
C 23.90625 -2 23.90625 1.390625 23.90625 2.6875 
L 23.90625 7.28125 
C 23.90625 23.65625 26.703125 34.4375 31.296875 41.3125 
z
" id="CMR17-55"/>
       </defs>
       <use transform="scale(0.996264)" xlink:href="#CMR17-48"/>
       <use transform="translate(45.690477 0)scale(0.996264)" xlink:href="#CMMI12-58"/>
       <use transform="translate(72.787654 0)scale(0.996264)" xlink:href="#CMR17-55"/>
       <use transform="translate(118.478131 0)scale(0.996264)" xlink:href="#CMR17-53"/>
      </g>
     </g>
    </g>
    <g id="ytick_6">
     <g id="line2d_17">
      <g>
       <use style="stroke:#000000;stroke-width:0.8;" x="52.515835" xlink:href="#m4d5f831ced" y="117.733196"/>
      </g>
     </g>
     <g id="text_18">
      <!-- $\mathdefault{1.00}$ -->
      <g transform="translate(27.80442 121.192445)scale(0.1 -0.1)">
       <defs>
        <path d="M 26.59375 63.796875 
C 26.59375 65.890625 26.5 66 25.09375 66 
C 21.203125 61.359375 15.296875 59.890625 9.703125 59.6875 
C 9.40625 59.6875 8.90625 59.6875 8.796875 59.5 
C 8.703125 59.296875 8.703125 59.09375 8.703125 57 
C 11.796875 57 17 57.59375 21 59.984375 
L 21 7.296875 
C 21 3.796875 20.796875 2.59375 12.203125 2.59375 
L 9.203125 2.59375 
L 9.203125 0 
C 14 0.09375 19 0.1875 23.796875 0.1875 
C 28.59375 0.1875 33.59375 0.09375 38.40625 0 
L 38.40625 2.59375 
L 35.40625 2.59375 
C 26.796875 2.59375 26.59375 3.6875 26.59375 7.296875 
z
" id="CMR17-49"/>
       </defs>
       <use transform="scale(0.996264)" xlink:href="#CMR17-49"/>
       <use transform="translate(45.690477 0)scale(0.996264)" xlink:href="#CMMI12-58"/>
       <use transform="translate(72.787654 0)scale(0.996264)" xlink:href="#CMR17-48"/>
       <use transform="translate(118.478131 0)scale(0.996264)" xlink:href="#CMR17-48"/>
      </g>
     </g>
    </g>
    <g id="ytick_7">
     <g id="line2d_18">
      <g>
       <use style="stroke:#000000;stroke-width:0.8;" x="52.515835" xlink:href="#m4d5f831ced" y="80.119593"/>
      </g>
     </g>
     <g id="text_19">
      <!-- $\mathdefault{1.25}$ -->
      <g transform="translate(27.80442 83.578842)scale(0.1 -0.1)">
       <use transform="scale(0.996264)" xlink:href="#CMR17-49"/>
       <use transform="translate(45.690477 0)scale(0.996264)" xlink:href="#CMMI12-58"/>
       <use transform="translate(72.787654 0)scale(0.996264)" xlink:href="#CMR17-50"/>
       <use transform="translate(118.478131 0)scale(0.996264)" xlink:href="#CMR17-53"/>
      </g>
     </g>
    </g>
    <g id="ytick_8">
     <g id="line2d_19">
      <g>
       <use style="stroke:#000000;stroke-width:0.8;" x="52.515835" xlink:href="#m4d5f831ced" y="42.50599"/>
      </g>
     </g>
     <g id="text_20">
      <!-- $\mathdefault{1.50}$ -->
      <g transform="translate(27.80442 45.96524)scale(0.1 -0.1)">
       <use transform="scale(0.996264)" xlink:href="#CMR17-49"/>
       <use transform="translate(45.690477 0)scale(0.996264)" xlink:href="#CMMI12-58"/>
       <use transform="translate(72.787654 0)scale(0.996264)" xlink:href="#CMR17-53"/>
       <use transform="translate(118.478131 0)scale(0.996264)" xlink:href="#CMR17-48"/>
      </g>
     </g>
    </g>
    <g id="text_21">
     <!-- Predicted GPA Difference -->
     <g transform="translate(14.118498 221.950297)rotate(-90)scale(0.1 -0.1)">
      <defs>
       <path d="M 62.09375 19.65625 
C 62.09375 23.484375 62.40625 24 68.59375 24 
L 68.59375 26.59375 
C 66.203125 26.390625 60.796875 26.390625 58.09375 26.390625 
C 55.296875 26.390625 47.5 26.5 43.703125 26.59375 
L 43.703125 24 
L 46.703125 24 
C 55.296875 24 55.5 22.875 55.5 19.25 
L 55.5 12.59375 
C 55.5 1.5 42.5 0.59375 39.40625 0.59375 
C 29.09375 0.59375 12.203125 7.75 12.203125 34.046875 
C 12.203125 60.34375 28.796875 67.390625 38.5 67.390625 
C 49.796875 67.390625 58 57.515625 59.90625 43.515625 
C 60.09375 42.3125 60.09375 42.109375 61 42.109375 
C 62.09375 42.109375 62.09375 42.3125 62.09375 44.125 
L 62.09375 67.984375 
C 62.09375 69.796875 62 69.890625 61.40625 69.890625 
C 61 69.890625 60.90625 69.796875 60.203125 68.59375 
L 55.796875 60.140625 
C 50.90625 66.390625 44.90625 70 37.203125 70 
C 20.09375 70 4.59375 54.796875 4.59375 34.046875 
C 4.59375 13.40625 19.796875 -2 37.40625 -2 
C 45.5 -2 53.40625 0.890625 56.5 6.640625 
C 58.203125 2.515625 61 -0.3125 61.5 -0.3125 
C 62 -0.3125 62.09375 -0.203125 62.09375 1.59375 
z
" id="CMR17-71"/>
       <path d="M 39.90625 40.390625 
L 51.296875 40.390625 
L 51.296875 43 
L 39.703125 43 
L 39.703125 55 
C 39.703125 63.234375 43.90625 68.390625 48.203125 68.390625 
C 49.5 68.390625 51 68 52 67.296875 
C 51.203125 67.09375 49.09375 66.40625 49.09375 63.921875 
C 49.09375 61.34375 51.09375 60.546875 52.5 60.546875 
C 53.90625 60.546875 55.90625 61.34375 55.90625 63.921875 
C 55.90625 67.703125 52.296875 70 48.296875 70 
C 44.40625 70 41.203125 68.09375 38.703125 65.71875 
C 36.40625 68.984375 32.59375 70 28.703125 70 
C 20.90625 70 9.90625 65.515625 9.90625 54.59375 
L 9.90625 43 
L 1.90625 43 
L 1.90625 40.390625 
L 9.90625 40.390625 
L 9.90625 6.890625 
C 9.90625 3.09375 9.5 2.59375 3.09375 2.59375 
L 3.09375 0 
C 5.5 0.1875 9.90625 0.1875 12.40625 0.1875 
C 15 0.1875 19.40625 0.1875 21.796875 0 
L 21.796875 2.59375 
C 15.40625 2.59375 15 3 15 6.890625 
L 15 40.390625 
L 34.796875 40.390625 
L 34.796875 6.890625 
C 34.796875 3.09375 34.40625 2.59375 28 2.59375 
L 28 0 
C 30.40625 0.1875 35 0.1875 37.59375 0.1875 
C 40.5 0.1875 45.59375 0.1875 48.296875 0 
L 48.296875 2.59375 
C 41.09375 2.59375 39.90625 2.59375 39.90625 7.09375 
z
M 14.796875 43 
L 14.796875 54.59375 
C 14.796875 63.625 21.796875 68.390625 28.5 68.390625 
C 30 68.390625 33.90625 68.09375 36.296875 65.90625 
C 34.5 65.8125 32.796875 65.015625 32.796875 62.53125 
C 32.796875 59.953125 35.09375 59.265625 35.296875 59.265625 
C 34.796875 57.484375 34.796875 55.5 34.796875 54.796875 
L 34.796875 43 
z
" id="CMR17-11"/>
      </defs>
      <use transform="scale(0.996264)" xlink:href="#CMR17-80"/>
      <use transform="translate(62.586301 0)scale(0.996264)" xlink:href="#CMR17-114"/>
      <use transform="translate(97.867068 0)scale(0.996264)" xlink:href="#CMR17-101"/>
      <use transform="translate(138.352729 0)scale(0.996264)" xlink:href="#CMR17-100"/>
      <use transform="translate(189.248099 0)scale(0.996264)" xlink:href="#CMR17-105"/>
      <use transform="translate(214.119157 0)scale(0.996264)" xlink:href="#CMR17-99"/>
      <use transform="translate(254.604818 0)scale(0.996264)" xlink:href="#CMR17-116"/>
      <use transform="translate(289.885585 0)scale(0.996264)" xlink:href="#CMR17-101"/>
      <use transform="translate(330.371246 0)scale(0.996264)" xlink:href="#CMR17-100"/>
      <use transform="translate(411.342582 0)scale(0.996264)" xlink:href="#CMR17-71"/>
      <use transform="translate(483.697928 0)scale(0.996264)" xlink:href="#CMR17-80"/>
      <use transform="translate(538.476973 0)scale(0.996264)" xlink:href="#CMR17-65"/>
      <use transform="translate(637.625369 0)scale(0.996264)" xlink:href="#CMR17-68"/>
      <use transform="translate(708.018925 0)scale(0.996264)" xlink:href="#CMR17-105"/>
      <use transform="translate(732.889983 0)scale(0.996264)" xlink:href="#CMR17-11"/>
      <use transform="translate(785.234661 0)scale(0.996264)" xlink:href="#CMR17-101"/>
      <use transform="translate(825.720321 0)scale(0.996264)" xlink:href="#CMR17-114"/>
      <use transform="translate(861.001089 0)scale(0.996264)" xlink:href="#CMR17-101"/>
      <use transform="translate(901.48675 0)scale(0.996264)" xlink:href="#CMR17-110"/>
      <use transform="translate(952.382119 0)scale(0.996264)" xlink:href="#CMR17-99"/>
      <use transform="translate(992.86778 0)scale(0.996264)" xlink:href="#CMR17-101"/>
     </g>
    </g>
   </g>
   <g id="patch_14">
    <path d="M 52.515835 309.50218 
L 52.515835 21.50218 
" style="fill:none;stroke:#000000;stroke-linecap:square;stroke-linejoin:miter;stroke-width:0.8;"/>
   </g>
   <g id="patch_15">
    <path d="M 484.515835 309.50218 
L 484.515835 21.50218 
" style="fill:none;stroke:#000000;stroke-linecap:square;stroke-linejoin:miter;stroke-width:0.8;"/>
   </g>
   <g id="patch_16">
    <path d="M 52.515835 309.50218 
L 484.515835 309.50218 
" style="fill:none;stroke:#000000;stroke-linecap:square;stroke-linejoin:miter;stroke-width:0.8;"/>
   </g>
   <g id="patch_17">
    <path d="M 52.515835 21.50218 
L 484.515835 21.50218 
" style="fill:none;stroke:#000000;stroke-linecap:square;stroke-linejoin:miter;stroke-width:0.8;"/>
   </g>
   <g id="text_22">
    <!-- Predicted GPA Gain by Accomodation Given -->
    <g transform="translate(151.504432 15.50218)scale(0.12 -0.12)">
     <defs>
      <path d="M 15 69 
L 3.09375 67.890625 
L 3.09375 65.296875 
C 9 65.296875 9.90625 64.703125 9.90625 60.046875 
L 9.90625 -0.203125 
L 11.703125 -0.203125 
L 14.59375 6.953125 
C 17.5 2.203125 21.796875 -1 27.59375 -1 
C 37.59375 -1 47.703125 7.859375 47.703125 21.59375 
C 47.703125 34.515625 38.703125 44 28.59375 44 
C 22.40625 44 18 40.671875 15 36.734375 
z
M 15.203125 31.59375 
C 15.203125 33.40625 15.203125 33.703125 16.59375 35.828125 
C 20.5 41.890625 26.09375 42.390625 28 42.390625 
C 31 42.390625 41.296875 40.78125 41.296875 21.6875 
C 41.296875 1.703125 29.5 0.59375 27.09375 0.59375 
C 24 0.59375 19.5 1.796875 16.296875 7.65625 
C 15.203125 9.578125 15.203125 9.78125 15.203125 11.59375 
z
" id="CMR17-98"/>
     </defs>
     <use transform="scale(0.996264)" xlink:href="#CMR17-80"/>
     <use transform="translate(62.586301 0)scale(0.996264)" xlink:href="#CMR17-114"/>
     <use transform="translate(97.867068 0)scale(0.996264)" xlink:href="#CMR17-101"/>
     <use transform="translate(138.352729 0)scale(0.996264)" xlink:href="#CMR17-100"/>
     <use transform="translate(189.248099 0)scale(0.996264)" xlink:href="#CMR17-105"/>
     <use transform="translate(214.119157 0)scale(0.996264)" xlink:href="#CMR17-99"/>
     <use transform="translate(254.604818 0)scale(0.996264)" xlink:href="#CMR17-116"/>
     <use transform="translate(289.885585 0)scale(0.996264)" xlink:href="#CMR17-101"/>
     <use transform="translate(330.371246 0)scale(0.996264)" xlink:href="#CMR17-100"/>
     <use transform="translate(411.342582 0)scale(0.996264)" xlink:href="#CMR17-71"/>
     <use transform="translate(483.697928 0)scale(0.996264)" xlink:href="#CMR17-80"/>
     <use transform="translate(538.476973 0)scale(0.996264)" xlink:href="#CMR17-65"/>
     <use transform="translate(637.625369 0)scale(0.996264)" xlink:href="#CMR17-71"/>
     <use transform="translate(709.980715 0)scale(0.996264)" xlink:href="#CMR17-97"/>
     <use transform="translate(755.671192 0)scale(0.996264)" xlink:href="#CMR17-105"/>
     <use transform="translate(780.542251 0)scale(0.996264)" xlink:href="#CMR17-110"/>
     <use transform="translate(861.513587 0)scale(0.996264)" xlink:href="#CMR17-98"/>
     <use transform="translate(909.806503 0)scale(0.996264)" xlink:href="#CMR17-121"/>
     <use transform="translate(988.175385 0)scale(0.996264)" xlink:href="#CMR17-65"/>
     <use transform="translate(1057.247815 0)scale(0.996264)" xlink:href="#CMR17-99"/>
     <use transform="translate(1097.733475 0)scale(0.996264)" xlink:href="#CMR17-99"/>
     <use transform="translate(1138.219136 0)scale(0.996264)" xlink:href="#CMR17-111"/>
     <use transform="translate(1183.909613 0)scale(0.996264)" xlink:href="#CMR17-109"/>
     <use transform="translate(1260.829203 0)scale(0.996264)" xlink:href="#CMR17-111"/>
     <use transform="translate(1309.122118 0)scale(0.996264)" xlink:href="#CMR17-100"/>
     <use transform="translate(1360.017488 0)scale(0.996264)" xlink:href="#CMR17-97"/>
     <use transform="translate(1405.707965 0)scale(0.996264)" xlink:href="#CMR17-116"/>
     <use transform="translate(1440.988733 0)scale(0.996264)" xlink:href="#CMR17-105"/>
     <use transform="translate(1465.859792 0)scale(0.996264)" xlink:href="#CMR17-111"/>
     <use transform="translate(1511.550269 0)scale(0.996264)" xlink:href="#CMR17-110"/>
     <use transform="translate(1592.521605 0)scale(0.996264)" xlink:href="#CMR17-71"/>
     <use transform="translate(1664.876951 0)scale(0.996264)" xlink:href="#CMR17-105"/>
     <use transform="translate(1689.748009 0)scale(0.996264)" xlink:href="#CMR17-118"/>
     <use transform="translate(1735.438471 0)scale(0.996264)" xlink:href="#CMR17-101"/>
     <use transform="translate(1775.924132 0)scale(0.996264)" xlink:href="#CMR17-110"/>
    </g>
   </g>
  </g>
 </g>
 <defs>
  <clipPath id="pfdd8082c00">
   <rect height="288" width="432" x="52.515835" y="21.50218"/>
  </clipPath>
 </defs>
</svg>
